<svg width="225" height="90" viewBox="0 0 225 90" fill="none" xmlns="http://www.w3.org/2000/svg">
<path d="M27.9802 67.2564L25.6001 60.8406H10.2198L7.97448 67.2564H0L13.1054 31.6134H22.2552L35.466 67.2564H27.9802ZM12.621 54.2731H23.161L17.7604 39.7143L12.621 54.2731Z" fill="white"/>
<path d="M68.3666 67.2564H59.8613L46.4863 50.5618V67.2564H39.1016V31.6176H46.4821V47.3223L59.3221 31.6176H67.8274L53.9721 48.9273L68.3666 67.2564Z" fill="white"/>
<path d="M100.302 62.5972C96.5236 66.178 91.9192 67.9683 86.5018 67.9683C81.0802 67.9683 76.4884 66.178 72.7266 62.5972C68.9647 59.0165 67.0817 54.627 67.0817 49.437C67.0817 44.2471 68.9605 39.8575 72.7266 36.2768C76.4884 32.6961 81.0802 30.9057 86.5018 30.9057C91.9235 30.9057 96.5236 32.6961 100.302 36.2768C104.081 39.8575 105.973 44.2471 105.973 49.437C105.973 54.627 104.081 59.0165 100.302 62.5972ZM77.887 57.8117C80.204 60.0023 83.077 61.0975 86.5018 61.0975C89.9267 61.0975 92.7955 60.0023 95.1166 57.8117C97.4336 55.6211 98.592 52.8324 98.592 49.437C98.592 46.0417 97.4336 43.2445 95.1166 41.0371C92.7997 38.8297 89.9267 37.726 86.5018 37.726C83.077 37.726 80.2082 38.8297 77.887 41.0371C75.5701 43.2445 74.4116 46.0459 74.4116 49.437C74.4116 52.8324 75.5701 55.6254 77.887 57.8117Z" fill="white"/>
<path d="M140.423 41.0876C143.49 41.0876 145.942 42.0396 147.779 43.9395C149.615 45.8394 150.534 48.388 150.534 51.577V67.2606H143.633V52.0362C143.633 50.507 143.242 49.319 142.458 48.4723C141.674 47.6256 140.567 47.2001 139.143 47.2001C137.571 47.2001 136.35 47.693 135.478 48.6745C134.602 49.6603 134.168 51.0841 134.168 52.9503V67.2564H127.263V52.032C127.263 50.5028 126.871 49.3148 126.088 48.4681C125.304 47.6214 124.196 47.1959 122.772 47.1959C121.239 47.1959 120.017 47.6888 119.107 48.6703C118.198 49.656 117.743 51.0799 117.743 52.9461V67.2521H110.842V41.7995H117.743V44.4998C119.348 42.225 121.825 41.0876 125.178 41.0876C128.46 41.0876 130.882 42.3092 132.453 44.7526C134.235 42.3092 136.893 41.0876 140.423 41.0876Z" fill="white"/>
<path d="M176.749 41.7996H183.649V67.2564H176.749V64.2528C174.68 66.7298 171.774 67.9683 168.029 67.9683C164.46 67.9683 161.402 66.6708 158.853 64.0717C156.305 61.4767 155.028 58.292 155.028 54.5259C155.028 50.7598 156.305 47.5751 158.853 44.9801C161.402 42.3851 164.46 41.0834 168.029 41.0834C171.774 41.0834 174.68 42.3219 176.749 44.7989V41.7996ZM164.018 59.699C165.408 61.0386 167.173 61.7084 169.313 61.7084C171.453 61.7084 173.227 61.0386 174.638 59.699C176.045 58.3594 176.753 56.6364 176.753 54.5301C176.753 52.4238 176.049 50.705 174.638 49.3612C173.227 48.0216 171.453 47.3518 169.313 47.3518C167.173 47.3518 165.408 48.0216 164.018 49.3612C162.628 50.7008 161.933 52.4238 161.933 54.5301C161.929 56.6322 162.624 58.3551 164.018 59.699Z" fill="white"/>
<path d="M196.809 46.1807C197.45 44.5504 198.511 43.3287 199.994 42.5157C201.473 41.7027 203.124 41.294 204.944 41.294V48.624C202.837 48.3881 200.959 48.7925 199.299 49.8456C197.639 50.8988 196.809 52.647 196.809 55.0904V67.2606H189.909V41.7996H196.809V46.1807Z" fill="white"/>
<path d="M225 48.1143H218.955V58.7048C218.955 59.5894 219.187 60.234 219.65 60.6384C220.113 61.047 220.792 61.2745 221.685 61.325C222.578 61.3756 223.681 61.3671 225 61.2997V67.2564C220.257 67.7661 216.912 67.3406 214.97 65.9842C213.024 64.6277 212.055 62.2012 212.055 58.7048V48.1143H207.4V41.7995H212.055V36.6559L218.955 34.6718V41.7995H225V48.1143Z" fill="white"/>
<path d="M126.279 26.2695C134.237 18.3121 138.032 9.20612 134.757 5.9307C131.481 2.65528 122.375 6.45078 114.418 14.4082C106.46 22.3656 102.665 31.4716 105.94 34.747C109.216 38.0225 118.322 34.227 126.279 26.2695Z" fill="#35BA4D"/>
<path d="M100.075 29.4271C103.372 29.4271 106.044 22.9334 106.044 14.9231C106.044 6.91272 103.372 0.419037 100.075 0.419037C96.7782 0.419037 94.1057 6.91272 94.1057 14.9231C94.1057 22.9334 96.7782 29.4271 100.075 29.4271Z" fill="#DDDD3A"/>
<path d="M43.8829 78.7821H45.0666V86.032H49.5488V87.0599H43.8829V78.7821Z" fill="white"/>
<path d="M56.3817 84.3006H51.2971C51.4403 85.4001 52.325 86.1331 53.5677 86.1331C54.3007 86.1331 54.9157 85.8845 55.3749 85.3748L56.0026 86.1078C55.4339 86.7692 54.5703 87.1231 53.5298 87.1231C51.5077 87.1231 50.1597 85.7877 50.1597 83.9173C50.1597 82.0595 51.4951 80.7241 53.3065 80.7241C55.1137 80.7241 56.4028 82.0258 56.4028 83.9509C56.407 84.0563 56.3943 84.1953 56.3817 84.3006ZM51.2971 83.4876H55.3159C55.198 82.4344 54.406 81.6888 53.3065 81.6888C52.2196 81.6888 51.415 82.4218 51.2971 83.4876Z" fill="white"/>
<path d="M64.4699 83.9257C64.4699 85.8424 63.1345 87.1315 61.302 87.1315C60.3795 87.1315 59.5749 86.7776 59.0651 86.0657V87.0599H57.9783V78.285H59.1115V81.7393C59.6338 81.0653 60.4132 80.7325 61.2978 80.7325C63.1345 80.7325 64.4699 82.0089 64.4699 83.9257ZM63.3241 83.9257C63.3241 82.5903 62.4142 81.7267 61.2093 81.7267C60.0172 81.7267 59.103 82.5903 59.103 83.9257C59.103 85.2611 60.013 86.1373 61.2093 86.1373C62.4142 86.1373 63.3241 85.2611 63.3241 83.9257Z" fill="white"/>
<path d="M65.8433 78.8495C65.8433 78.4366 66.1761 78.1039 66.61 78.1039C67.0481 78.1039 67.3767 78.424 67.3767 78.8242C67.3767 79.2497 67.0565 79.5825 66.61 79.5825C66.1718 79.5825 65.8433 79.2665 65.8433 78.8495ZM66.0413 80.7915H67.1744V87.0599H66.0413V80.7915Z" fill="white"/>
<path d="M75.288 83.4497V87.0557H74.1548V83.5802C74.1548 82.3502 73.5398 81.7478 72.4655 81.7478C71.2607 81.7478 70.4772 82.4681 70.4772 83.8288V87.0557H69.344V78.2808H70.4772V81.6761C70.949 81.0737 71.7325 80.7283 72.6888 80.7283C74.2138 80.7325 75.288 81.6045 75.288 83.4497Z" fill="white"/>
<path d="M86.4892 78.285V87.0599H85.4023V86.0657C84.8926 86.7734 84.088 87.1315 83.1654 87.1315C81.333 87.1315 79.9976 85.8424 79.9976 83.9257C79.9976 82.0089 81.333 80.7325 83.1654 80.7325C84.0543 80.7325 84.8336 81.0653 85.3518 81.7393V78.285H86.4892V78.285ZM85.3644 83.9257C85.3644 82.5903 84.4545 81.7267 83.2581 81.7267C82.0533 81.7267 81.1434 82.5903 81.1434 83.9257C81.1434 85.2611 82.0533 86.1373 83.2581 86.1373C84.4545 86.1373 85.3644 85.2611 85.3644 83.9257Z" fill="white"/>
<path d="M94.2826 84.3006H89.198C89.3412 85.4001 90.2258 86.1331 91.4686 86.1331C92.2016 86.1331 92.8166 85.8845 93.2758 85.3748L93.9034 86.1078C93.3347 86.7692 92.4712 87.1231 91.4306 87.1231C89.4086 87.1231 88.0605 85.7877 88.0605 83.9173C88.0605 82.0595 89.3959 80.7241 91.2074 80.7241C93.0146 80.7241 94.3036 82.0258 94.3036 83.9509C94.3036 84.0563 94.291 84.1953 94.2826 84.3006ZM89.198 83.4876H93.2168C93.0988 82.4344 92.3069 81.6888 91.2074 81.6888C90.1205 81.6888 89.3159 82.4218 89.198 83.4876Z" fill="white"/>
<path d="M98.3142 84.1363L97.0125 85.3411V87.0557H95.8793V78.2808H97.0125V83.9088L100.429 80.7873H101.802L99.1651 83.378L102.063 87.0557H100.669L98.3142 84.1363Z" fill="white"/>
<path d="M108.129 83.2727V87.0557H107.055V86.23C106.676 86.7987 105.981 87.1273 104.999 87.1273C103.58 87.1273 102.682 86.369 102.682 85.2821C102.682 84.2753 103.331 83.4497 105.202 83.4497H107V83.2264C107 82.2701 106.444 81.7141 105.32 81.7141C104.574 81.7141 103.816 81.9752 103.331 82.3881L102.859 81.5371C103.508 81.0148 104.443 80.7325 105.45 80.7325C107.161 80.7325 108.129 81.5582 108.129 83.2727ZM106.992 85.1431V84.2669H105.244C104.119 84.2669 103.803 84.705 103.803 85.2358C103.803 85.8635 104.325 86.251 105.185 86.251C106.036 86.2553 106.71 85.8635 106.992 85.1431Z" fill="white"/>
<path d="M113.758 86.6934C113.416 86.9883 112.894 87.1315 112.384 87.1315C111.12 87.1315 110.396 86.4322 110.396 85.1684V81.7267H109.33V80.7915H110.396V79.4182H111.533V80.7915H113.332V81.7267H111.533V85.1221C111.533 85.7961 111.887 86.1752 112.515 86.1752C112.848 86.1752 113.164 86.0699 113.404 85.8803L113.758 86.6934Z" fill="white"/>
<path d="M118.311 78.285H119.445V87.0599H118.311V78.285Z" fill="white"/>
<path d="M127.251 84.3006H122.166C122.309 85.4001 123.194 86.1331 124.437 86.1331C125.17 86.1331 125.785 85.8845 126.244 85.3748L126.871 86.1078C126.303 86.7692 125.439 87.1231 124.399 87.1231C122.377 87.1231 121.029 85.7877 121.029 83.9173C121.029 82.0595 122.364 80.7241 124.175 80.7241C125.983 80.7241 127.272 82.0258 127.272 83.9509C127.272 84.0563 127.263 84.1953 127.251 84.3006ZM122.166 83.4876H126.185C126.067 82.4344 125.275 81.6888 124.175 81.6888C123.088 81.6888 122.284 82.4218 122.166 83.4876Z" fill="white"/>
<path d="M135.339 83.9257C135.339 85.8424 134.003 87.1315 132.171 87.1315C131.248 87.1315 130.444 86.7776 129.934 86.0657V87.0599H128.847V78.285H129.98V81.7393C130.503 81.0653 131.282 80.7325 132.167 80.7325C134.003 80.7325 135.339 82.0089 135.339 83.9257ZM134.193 83.9257C134.193 82.5903 133.283 81.7267 132.078 81.7267C130.886 81.7267 129.972 82.5903 129.972 83.9257C129.972 85.2611 130.882 86.1373 132.078 86.1373C133.279 86.1373 134.193 85.2611 134.193 83.9257Z" fill="white"/>
<path d="M136.708 78.8495C136.708 78.4366 137.041 78.1039 137.475 78.1039C137.913 78.1039 138.241 78.424 138.241 78.8242C138.241 79.2497 137.921 79.5825 137.475 79.5825C137.041 79.5825 136.708 79.2665 136.708 78.8495ZM136.91 80.7915H138.043V87.0599H136.91V80.7915Z" fill="white"/>
<path d="M146.157 83.4497V87.0557H145.024V83.5802C145.024 82.3502 144.409 81.7478 143.334 81.7478C142.13 81.7478 141.346 82.4681 141.346 83.8288V87.0557H140.213V78.2808H141.346V81.6761C141.818 81.0737 142.601 80.7283 143.558 80.7283C145.083 80.7325 146.157 81.6045 146.157 83.4497Z" fill="white"/>
<path d="M150.866 83.9257C150.866 82.0595 152.248 80.7325 154.178 80.7325C155.302 80.7325 156.233 81.1917 156.73 82.0679L155.867 82.624C155.467 82.0089 154.852 81.7267 154.165 81.7267C152.935 81.7267 152.012 82.5903 152.012 83.9257C152.012 85.2864 152.935 86.1373 154.165 86.1373C154.852 86.1373 155.467 85.8551 155.867 85.24L156.73 85.7834C156.233 86.6597 155.298 87.1315 154.178 87.1315C152.248 87.1273 150.866 85.7919 150.866 83.9257Z" fill="white"/>
<path d="M163.837 84.3006H158.753C158.896 85.4001 159.78 86.1331 161.023 86.1331C161.756 86.1331 162.371 85.8845 162.83 85.3748L163.458 86.1078C162.889 86.7692 162.026 87.1231 160.985 87.1231C158.963 87.1231 157.615 85.7877 157.615 83.9173C157.615 82.0595 158.951 80.7241 160.762 80.7241C162.569 80.7241 163.858 82.0258 163.858 83.9509C163.862 84.0563 163.85 84.1953 163.837 84.3006ZM158.753 83.4876H162.771C162.653 82.4344 161.861 81.6888 160.762 81.6888C159.675 81.6888 158.87 82.4218 158.753 83.4876Z" fill="white"/>
<path d="M171.925 83.9257C171.925 85.8551 170.59 87.1315 168.757 87.1315C167.869 87.1315 167.089 86.7903 166.571 86.1162V89.3557H165.438V80.7957H166.525V81.7899C167.034 81.0906 167.839 80.7367 168.762 80.7367C170.59 80.7325 171.925 82.0089 171.925 83.9257ZM170.779 83.9257C170.779 82.6029 169.87 81.7267 168.665 81.7267C167.473 81.7267 166.558 82.6029 166.558 83.9257C166.558 85.2611 167.468 86.1373 168.665 86.1373C169.87 86.1373 170.779 85.2611 170.779 83.9257Z" fill="white"/>
<path d="M178.463 83.2727V87.0557H177.389V86.23C177.01 86.7987 176.315 87.1273 175.333 87.1273C173.914 87.1273 173.016 86.369 173.016 85.2821C173.016 84.2753 173.665 83.4497 175.536 83.4497H177.334V83.2264C177.334 82.2701 176.778 81.7141 175.653 81.7141C174.908 81.7141 174.15 81.9752 173.665 82.3881L173.193 81.5371C173.842 81.0148 174.777 80.7325 175.784 80.7325C177.494 80.7325 178.463 81.5582 178.463 83.2727ZM177.33 85.1431V84.2669H175.582C174.457 84.2669 174.141 84.705 174.141 85.2358C174.141 85.8635 174.663 86.251 175.523 86.251C176.37 86.2553 177.048 85.8635 177.33 85.1431Z" fill="white"/>
<path d="M184.096 86.6934C183.754 86.9883 183.232 87.1315 182.722 87.1315C181.458 87.1315 180.734 86.4322 180.734 85.1684V81.7267H179.668V80.7915H180.734V79.4182H181.871V80.7915H183.67V81.7267H181.871V85.1221C181.871 85.7961 182.225 86.1752 182.853 86.1752C183.186 86.1752 183.502 86.0699 183.742 85.8803L184.096 86.6934Z" fill="white"/>
</svg>
