<svg width="200" height="60" viewBox="0 0 200 60" fill="none" xmlns="http://www.w3.org/2000/svg">
<path d="M80.4112 59.8008C78.8928 59.8008 78.0137 59.1273 78.0137 57.9468V45.1104H88.4748V45.9417C88.4748 47.1472 87.8594 47.6959 86.5488 47.6959H81.3622V51.1046H86.7965V51.9359C86.7965 53.0832 86.1652 53.6735 84.9105 53.6735H81.3622V57.1653H86.9564C88.0193 57.1653 88.6426 57.6974 88.6426 58.6368V59.7841L80.4112 59.8008Z" fill="white"/>
<path d="M90.6664 45.1102H92.9041C93.4065 45.0537 93.9136 45.158 94.3576 45.409C94.8017 45.66 95.1616 46.0459 95.3895 46.5152L98.2425 51.9441C98.8595 53.0763 99.4067 54.2481 99.8808 55.4525C99.7472 54.377 99.6724 53.2945 99.657 52.2101V45.2515C100.016 45.0725 100.41 44.9815 100.808 44.9855C102.158 44.9855 102.862 45.6423 102.862 46.8395V59.8172H99.1056L95.1897 52.4679C94.59 51.3469 94.0563 50.1892 93.5913 49.001C93.7686 50.1418 93.8568 51.2956 93.8551 52.4512V59.6925C93.4977 59.8765 93.1029 59.9678 92.7043 59.9586C91.3696 59.9586 90.6504 59.3018 90.6504 58.1046L90.6664 45.1102Z" fill="white"/>
<path d="M104.539 45.1104H114.569C115.759 45.1104 116.439 45.7422 116.439 46.8646V47.7042H112.131V59.676C111.708 59.8567 111.254 59.9472 110.797 59.9421C109.526 59.9421 108.847 59.2853 108.847 58.0881V47.7042H106.409C105.218 47.7042 104.539 47.0724 104.539 45.95V45.1104Z" fill="white"/>
<path d="M120.466 59.8008C118.947 59.8008 118.068 59.1273 118.068 57.9468V45.1104H128.529V45.9417C128.529 47.1472 127.914 47.6959 126.603 47.6959H121.353V51.1046H126.787V51.9359C126.787 53.0832 126.148 53.6735 124.901 53.6735H121.353V57.1653H126.947C128.018 57.1653 128.633 57.6974 128.633 58.6368V59.7841L120.466 59.8008Z" fill="white"/>
<path d="M130.729 58.0881V45.1104H136.946C140.143 45.1104 141.893 46.7232 141.893 49.5998C141.898 50.5232 141.611 51.4228 141.077 52.1603C140.543 52.8977 139.791 53.4323 138.936 53.6818L141.661 59.1689C141.126 59.6675 140.43 59.9377 139.711 59.9255C139.259 59.9816 138.802 59.8662 138.425 59.6006C138.048 59.3349 137.775 58.9366 137.657 58.4789L136.019 54.1973H134.013V59.6844C133.587 59.8518 133.134 59.9363 132.678 59.9338C131.408 59.9338 130.729 59.277 130.729 58.0964V58.0881ZM134.013 51.645H136.411C137.801 51.645 138.584 50.9549 138.584 49.6829C138.584 48.4109 137.785 47.7042 136.411 47.7042H134.013V51.645Z" fill="white"/>
<path d="M144.057 58.0881V45.1104H150.026C153.103 45.1104 154.973 46.8895 154.973 49.8076C154.973 52.7257 153.127 54.4799 150.026 54.4799H147.341V59.6844C146.919 59.867 146.464 59.9575 146.007 59.9504C144.736 59.9504 144.057 59.3019 144.057 58.0964V58.0881ZM147.341 51.8944H149.739C150.006 51.9129 150.275 51.8704 150.525 51.7696C150.775 51.6688 151.001 51.5124 151.187 51.3111C151.372 51.1099 151.514 50.8688 151.6 50.6048C151.687 50.3407 151.717 50.0601 151.689 49.7827C151.689 48.4525 150.89 47.7042 149.515 47.7042H147.341V51.8944Z" fill="white"/>
<path d="M157.02 58.0881V45.1104H163.237C166.434 45.1104 168.176 46.7232 168.176 49.5998C168.181 50.5232 167.894 51.4228 167.36 52.1603C166.826 52.8977 166.074 53.4323 165.219 53.6818L167.944 59.1689C167.409 59.6675 166.713 59.9377 165.994 59.9255C165.542 59.9816 165.085 59.8662 164.708 59.6006C164.331 59.3349 164.058 58.9366 163.94 58.4789L162.302 54.1973H160.296V59.6844C159.87 59.8518 159.417 59.9363 158.962 59.9338C157.691 59.9338 157.012 59.277 157.012 58.0964L157.02 58.0881ZM160.296 51.645H162.694C164.084 51.645 164.868 50.9549 164.868 49.6829C164.868 48.4109 164.068 47.7042 162.694 47.7042H160.296V51.645Z" fill="white"/>
<path d="M170.359 45.2516C170.783 45.071 171.237 44.9805 171.694 44.9856C172.965 44.9856 173.644 45.634 173.644 46.8395V59.676C173.221 59.8566 172.767 59.9471 172.309 59.942C171.039 59.942 170.359 59.2852 170.359 58.088V45.2516Z" fill="white"/>
<path d="M177.719 55.4941C178.047 56.1547 178.555 56.7007 179.178 57.0643C179.802 57.4278 180.515 57.593 181.228 57.5392C182.906 57.5392 183.753 56.8825 183.753 55.7435C183.753 54.2719 182.482 54.0807 180.86 53.6817C177.519 52.9251 176.369 51.3538 176.369 49.1756C176.369 46.5401 178.542 44.9106 181.827 44.9106C184.784 44.9106 186.75 46.1993 186.75 47.887C186.75 48.6186 186.174 49.1922 185.088 49.4167C184.68 48.0532 183.218 47.3549 181.827 47.3549C180.436 47.3549 179.693 48.0449 179.693 48.9013C179.693 50.0485 180.349 50.4144 182.81 50.9631C186.438 51.7944 187.117 53.4572 187.117 55.4525C187.117 58.1877 184.72 60.0001 181.228 60.0001C178.031 60.0001 176.041 58.6948 176.041 56.9988C176.041 56.2672 176.616 55.7102 177.719 55.4857" fill="white"/>
<path d="M191.831 59.8008C190.313 59.8008 189.434 59.1273 189.434 57.9468V45.1104H199.895V45.9417C199.895 47.1472 199.279 47.6959 197.969 47.6959H192.718V51.1046H198.153V51.9359C198.153 53.0832 197.513 53.6735 196.266 53.6735H192.718V57.1653H198.312C199.375 57.1653 199.999 57.6974 199.999 58.6368V59.7841L191.831 59.8008Z" fill="white"/>
<path d="M90.7603 9.95117C83.5678 9.95117 78.3652 15.3135 78.3652 22.7045C78.3652 30.0954 83.5758 35.4578 90.7603 35.4578C97.9449 35.4578 103.155 30.0954 103.155 22.7045C103.155 15.3135 97.9449 9.95117 90.7603 9.95117ZM90.7603 29.7462C87.1241 29.7462 84.6867 26.9195 84.6867 22.7045C84.6867 18.4894 87.1321 15.6627 90.7603 15.6627C94.3886 15.6627 96.834 18.4977 96.834 22.7045C96.834 26.9112 94.3886 29.7462 90.7603 29.7462Z" fill="white"/>
<path d="M68.2478 22.8462C68.2125 22.8378 68.181 22.8172 68.1584 22.7878C68.1358 22.7583 68.1235 22.7218 68.1235 22.6841C68.1235 22.6464 68.1358 22.6098 68.1584 22.5804C68.181 22.5509 68.2125 22.5303 68.2478 22.522C69.5157 22.137 70.6343 21.3457 71.4445 20.2606L79.2284 10.3423H72.0359L63.341 21.4412V0H57.0195V35.0674H63.341V23.7275L70.8292 32.8726C71.3846 33.6056 72.0997 34.1907 72.9154 34.5795C73.731 34.9684 74.6239 35.1499 75.5203 35.109H80.0995L71.5724 24.8581C70.7112 23.8364 69.5468 23.143 68.2638 22.8878" fill="white"/>
<path d="M134.028 9.95101C132.511 9.91197 131.011 10.2866 129.676 11.0378C128.342 11.7889 127.219 12.8903 126.42 14.2326C125.222 11.4309 122.8 9.95101 119.228 9.95101C116.239 9.95101 114.049 11.3228 113.194 13.2765C113.074 13.5592 112.859 13.6257 112.763 13.2183C112.568 12.3943 112.112 11.6628 111.468 11.1422C110.824 10.6216 110.03 10.3425 109.214 10.3501H106.537V35.0669H112.851V22.5131C112.851 18.2232 114.553 15.5628 117.494 15.5628C120.003 15.5628 121.346 17.2256 121.346 20.0522V35.0669H127.659V22.4632C127.659 18.2066 129.337 15.5628 132.262 15.5628C134.796 15.5628 136.21 17.2256 136.21 20.0522V35.0669H142.524V18.3645C142.524 13.3763 139.055 9.95101 134.021 9.95101" fill="white"/>
<path d="M52.4887 3.79939C52.4887 2.79173 52.1039 1.82533 51.419 1.11281C50.734 0.400287 49.8051 0 48.8365 0H46.1992V30.5364C46.1992 34.0365 48.333 35.4499 50.7145 35.4499C51.7357 35.4453 52.744 35.2128 53.6714 34.7681C52.7204 33.2966 52.5206 31.2182 52.5206 29.3476L52.4887 3.79939Z" fill="white"/>
<path d="M15.9354 7.6899C15.9228 5.95435 15.2528 4.29397 14.0709 3.06905C12.8889 1.84413 11.2903 1.15349 9.62199 1.14697H3.6522C2.68358 1.14697 1.75462 1.54727 1.0697 2.25979C0.38478 2.97231 0 3.9387 0 4.94636V7.94763H9.48612V30.5361C9.48612 34.0362 11.6838 35.4495 14.0654 35.4495C15.107 35.4443 16.1361 35.2121 17.0862 34.7678C16.1352 33.2963 15.9354 31.2178 15.9354 29.3472V7.6899Z" fill="white"/>
<path d="M25.4208 6.47658V1.14746H13.9447C13.9102 1.14965 13.8771 1.1629 13.8501 1.18541C13.823 1.20792 13.8034 1.23858 13.7937 1.27318C13.7841 1.30779 13.785 1.34464 13.7963 1.37869C13.8076 1.41274 13.8287 1.44232 13.8568 1.46338C14.7197 1.99683 15.4554 2.72635 16.009 3.59737C16.5626 4.46839 16.9196 5.45836 17.0535 6.49321C17.1015 6.909 17.2985 7.29065 17.6051 7.56192C17.9118 7.83318 18.3056 7.97407 18.7078 7.95643H23.9663C24.1555 7.95973 24.3434 7.92395 24.5193 7.85116C24.6951 7.77838 24.8553 7.67003 24.9905 7.53239C25.1258 7.39475 25.2335 7.23057 25.3073 7.04933C25.3812 6.8681 25.4198 6.67343 25.4208 6.47658Z" fill="white"/>
<path d="M156.438 19.9616C153.297 19.1302 152.17 18.3903 152.17 17.2846C152.17 15.8296 153.329 14.9899 155.743 14.9899C158.302 14.98 160.807 15.7644 162.935 17.243V11.8972C160.685 10.5737 158.135 9.90189 155.551 9.95181C149.725 9.95181 146.137 13.136 146.137 17.509C146.137 21.8821 149.725 23.7693 153.569 24.875C156.766 25.8477 158.364 26.3881 158.364 27.8597C158.364 29.3312 157.125 30.3538 154.448 30.3538C151.457 30.3677 148.566 29.2341 146.329 27.1696V32.9892C148.812 34.6864 151.733 35.5564 154.704 35.4834C160.833 35.4834 164.422 32.4322 164.422 27.7516C164.422 22.7134 160.274 21.0091 156.478 19.9948" fill="white"/>
<path d="M31.8151 9.95167C25.3418 9.95167 20.0273 15.0064 20.0273 22.8047C20.0273 30.2871 24.8224 35.45 32.814 35.45C35.7242 35.4686 38.5811 34.6392 41.0615 33.0556V27.4438C38.8647 29.1129 36.2289 30.0414 33.5093 30.1042C29.5774 30.1042 26.8762 28.3833 26.0611 24.5756H42.5479C42.6489 23.8093 42.7076 23.0376 42.7237 22.2643C42.7237 14.2 37.7049 9.94336 31.7911 9.94336L31.8151 9.95167ZM26.2768 20.0529C26.7643 17.0184 28.978 14.8651 31.7432 14.8651C34.3644 14.8651 36.3464 16.6609 36.6261 20.0529H26.2768Z" fill="white"/>
<path d="M178.133 9.95167C171.66 9.95167 166.346 15.0064 166.346 22.8047C166.346 30.2871 171.141 35.45 179.132 35.45C182.043 35.4686 184.9 34.6392 187.38 33.0556V27.4438C185.181 29.1145 182.542 30.043 179.82 30.1042C175.888 30.1042 173.187 28.3833 172.371 24.5756H188.858C188.959 23.8093 189.018 23.0376 189.034 22.2643C189.034 14.2 184.015 9.94336 178.101 9.94336L178.133 9.95167ZM172.587 20.0529C173.075 17.0184 175.288 14.8651 178.054 14.8651C180.675 14.8651 182.657 16.6609 182.936 20.0529H172.587Z" fill="white"/>
<path d="M198.841 29.3559V3.79939C198.841 2.79173 198.456 1.82533 197.771 1.11281C197.086 0.400287 196.157 0 195.189 0H192.527V30.5364C192.527 34.0365 194.661 35.4499 197.043 35.4499C198.064 35.4453 199.072 35.2128 200 34.7681C199.049 33.2966 198.849 31.2182 198.849 29.3476" fill="white"/>
</svg>
