<svg width="60" height="59" viewBox="0 0 60 59" fill="none" xmlns="http://www.w3.org/2000/svg">
<path d="M24 11.6129H36C36 10.0729 35.3679 8.59604 34.2426 7.50712C33.1174 6.4182 31.5913 5.80645 30 5.80645C28.4087 5.80645 26.8826 6.4182 25.7574 7.50712C24.6321 8.59604 24 10.0729 24 11.6129ZM18 11.6129C18 8.53297 19.2643 5.57918 21.5147 3.40134C23.7652 1.2235 26.8174 0 30 0C33.1826 0 36.2348 1.2235 38.4853 3.40134C40.7357 5.57918 42 8.53297 42 11.6129H57C57.7957 11.6129 58.5587 11.9188 59.1213 12.4632C59.6839 13.0077 60 13.7461 60 14.5161C60 15.2861 59.6839 16.0246 59.1213 16.569C58.5587 17.1135 57.7957 17.4194 57 17.4194H54.354L51.696 47.4387C51.4405 50.3375 50.0699 53.0378 47.8556 55.0055C45.6412 56.9732 42.7443 58.0649 39.738 58.0645H20.262C17.2557 58.0649 14.3588 56.9732 12.1444 55.0055C9.93007 53.0378 8.55953 50.3375 8.304 47.4387L5.646 17.4194H3C2.20435 17.4194 1.44129 17.1135 0.87868 16.569C0.31607 16.0246 0 15.2861 0 14.5161C0 13.7461 0.31607 13.0077 0.87868 12.4632C1.44129 11.9188 2.20435 11.6129 3 11.6129H18ZM39 29.0323C39 28.2623 38.6839 27.5238 38.1213 26.9794C37.5587 26.4349 36.7957 26.129 36 26.129C35.2043 26.129 34.4413 26.4349 33.8787 26.9794C33.3161 27.5238 33 28.2623 33 29.0323V40.6452C33 41.4151 33.3161 42.1536 33.8787 42.6981C34.4413 43.2425 35.2043 43.5484 36 43.5484C36.7957 43.5484 37.5587 43.2425 38.1213 42.6981C38.6839 42.1536 39 41.4151 39 40.6452V29.0323ZM24 26.129C24.7956 26.129 25.5587 26.4349 26.1213 26.9794C26.6839 27.5238 27 28.2623 27 29.0323V40.6452C27 41.4151 26.6839 42.1536 26.1213 42.6981C25.5587 43.2425 24.7956 43.5484 24 43.5484C23.2044 43.5484 22.4413 43.2425 21.8787 42.6981C21.3161 42.1536 21 41.4151 21 40.6452V29.0323C21 28.2623 21.3161 27.5238 21.8787 26.9794C22.4413 26.4349 23.2044 26.129 24 26.129ZM14.28 46.9452C14.4078 48.3951 15.0935 49.7456 16.2013 50.7296C17.3092 51.7135 18.7583 52.259 20.262 52.2581H39.738C41.2406 52.2575 42.6883 51.7114 43.7949 50.7276C44.9014 49.7438 45.5863 48.3941 45.714 46.9452L48.33 17.4194H11.67L14.286 46.9452H14.28Z" fill="#E2362C"/>
</svg>
