<svg width="18" height="18" viewBox="0 0 18 18" fill="none" xmlns="http://www.w3.org/2000/svg">
<path d="M7.2 3.48387H10.8C10.8 3.02188 10.6104 2.57881 10.2728 2.25214C9.93523 1.92546 9.47739 1.74194 9 1.74194C8.52261 1.74194 8.06477 1.92546 7.72721 2.25214C7.38964 2.57881 7.2 3.02188 7.2 3.48387ZM5.4 3.48387C5.4 2.55989 5.77928 1.67375 6.45442 1.0204C7.12955 0.36705 8.04522 0 9 0C9.95478 0 10.8705 0.36705 11.5456 1.0204C12.2207 1.67375 12.6 2.55989 12.6 3.48387H17.1C17.3387 3.48387 17.5676 3.57563 17.7364 3.73897C17.9052 3.90231 18 4.12384 18 4.35484C18 4.58583 17.9052 4.80737 17.7364 4.97071C17.5676 5.13404 17.3387 5.22581 17.1 5.22581H16.3062L15.5088 14.2316C15.4321 15.1012 15.021 15.9114 14.3567 16.5017C13.6924 17.092 12.8233 17.4195 11.9214 17.4194H6.0786C5.17672 17.4195 4.30765 17.092 3.64333 16.5017C2.97902 15.9114 2.56786 15.1012 2.4912 14.2316L1.6938 5.22581H0.9C0.661305 5.22581 0.432387 5.13404 0.263604 4.97071C0.0948211 4.80737 0 4.58583 0 4.35484C0 4.12384 0.0948211 3.90231 0.263604 3.73897C0.432387 3.57563 0.661305 3.48387 0.9 3.48387H5.4ZM11.7 8.70968C11.7 8.47868 11.6052 8.25715 11.4364 8.09381C11.2676 7.93047 11.0387 7.83871 10.8 7.83871C10.5613 7.83871 10.3324 7.93047 10.1636 8.09381C9.99482 8.25715 9.9 8.47868 9.9 8.70968V12.1935C9.9 12.4245 9.99482 12.6461 10.1636 12.8094C10.3324 12.9728 10.5613 13.0645 10.8 13.0645C11.0387 13.0645 11.2676 12.9728 11.4364 12.8094C11.6052 12.6461 11.7 12.4245 11.7 12.1935V8.70968ZM7.2 7.83871C7.43869 7.83871 7.66761 7.93047 7.8364 8.09381C8.00518 8.25715 8.1 8.47868 8.1 8.70968V12.1935C8.1 12.4245 8.00518 12.6461 7.8364 12.8094C7.66761 12.9728 7.43869 13.0645 7.2 13.0645C6.96131 13.0645 6.73239 12.9728 6.5636 12.8094C6.39482 12.6461 6.3 12.4245 6.3 12.1935V8.70968C6.3 8.47868 6.39482 8.25715 6.5636 8.09381C6.73239 7.93047 6.96131 7.83871 7.2 7.83871ZM4.284 14.0835C4.32234 14.5185 4.52805 14.9237 4.8604 15.2189C5.19275 15.514 5.6275 15.6777 6.0786 15.6774H11.9214C12.3722 15.6773 12.8065 15.5134 13.1385 15.2183C13.4704 14.9231 13.6759 14.5182 13.7142 14.0835L14.499 5.22581H3.501L4.2858 14.0835H4.284Z" fill="#7D7D7D"/>
</svg>
