<svg width="18" height="19" viewBox="0 0 18 19" fill="none" xmlns="http://www.w3.org/2000/svg">
<path d="M12.7404 4.16088L14.7339 6.0891L12.7404 4.16088ZM14.0223 2.46219L8.63215 7.67849C8.35365 7.94764 8.1637 8.29055 8.08627 8.664L7.58838 11.0759L10.0806 10.5931C10.4665 10.5184 10.8204 10.3354 11.099 10.0658L16.4892 4.84947C16.6512 4.69272 16.7796 4.50663 16.8673 4.30182C16.955 4.09702 17.0001 3.87751 17.0001 3.65583C17.0001 3.43415 16.955 3.21464 16.8673 3.00984C16.7796 2.80503 16.6512 2.61894 16.4892 2.46219C16.3272 2.30544 16.1349 2.1811 15.9233 2.09627C15.7116 2.01144 15.4848 1.96777 15.2558 1.96777C15.0267 1.96777 14.7999 2.01144 14.5882 2.09627C14.3766 2.1811 14.1843 2.30544 14.0223 2.46219V2.46219Z" stroke="#7D7D7D" stroke-width="2" stroke-linecap="round" stroke-linejoin="round"/>
<path d="M15.1178 12.8975V15.63C15.1178 16.1131 14.9195 16.5765 14.5665 16.9181C14.2134 17.2597 13.7347 17.4516 13.2354 17.4516H2.88237C2.38314 17.4516 1.90435 17.2597 1.55133 16.9181C1.19832 16.5765 1 16.1131 1 15.63V5.6109C1 5.12776 1.19832 4.66442 1.55133 4.32279C1.90435 3.98117 2.38314 3.78925 2.88237 3.78925H5.70593" stroke="#7D7D7D" stroke-width="2" stroke-linecap="round" stroke-linejoin="round"/>
</svg>
