<svg width="20" height="20" viewBox="0 0 20 20" fill="none" xmlns="http://www.w3.org/2000/svg">
<path d="M2.08001 2L8.56201 10.101C8.84575 10.4558 9.00023 10.8967 9.00001 11.351V18L11 16.5V11.35C11 10.896 11.1545 10.4556 11.438 10.101L17.92 2H2.08101H2.08001ZM2.08001 0H17.92C18.2968 4.70007e-05 18.6659 0.106524 18.9848 0.307166C19.3037 0.507808 19.5595 0.794454 19.7226 1.13409C19.8857 1.47372 19.9496 1.85253 19.9069 2.22687C19.8641 2.60122 19.7165 2.95588 19.481 3.25L13 11.35V16.5C13 16.8105 12.9277 17.1167 12.7889 17.3944C12.65 17.6721 12.4484 17.9137 12.2 18.1L10.2 19.6C9.90287 19.8229 9.54955 19.9586 9.17962 19.9919C8.8097 20.0253 8.4378 19.955 8.10559 19.7889C7.77337 19.6227 7.49398 19.3674 7.29871 19.0515C7.10344 18.7355 7.00001 18.3714 7.00001 18V11.35L0.519013 3.25C0.283527 2.95588 0.135912 2.60122 0.0931718 2.22687C0.0504315 1.85253 0.114304 1.47372 0.277433 1.13409C0.440561 0.794454 0.69631 0.507808 1.01522 0.307166C1.33413 0.106524 1.70323 4.70007e-05 2.08001 0V0Z" fill="#828282"/>
</svg>
