<svg width="40" height="40" viewBox="0 0 40 40" fill="none" xmlns="http://www.w3.org/2000/svg">
<circle cx="20" cy="20" r="20" fill="#6A88B6"/>
<path fill-rule="evenodd" clip-rule="evenodd" d="M20 8C18.965 8 17.2355 8.3975 15.608 8.84C13.943 9.29 12.2645 9.8225 11.2775 10.145C10.8648 10.2813 10.499 10.5312 10.222 10.8661C9.94497 11.2009 9.76804 11.6071 9.71151 12.038C8.81751 18.7535 10.892 23.7305 13.409 27.023C14.4764 28.4314 15.749 29.6717 17.1845 30.7025C17.7635 31.112 18.3005 31.4255 18.7565 31.64C19.1765 31.838 19.628 32 20 32C20.372 32 20.822 31.838 21.2435 31.64C21.7932 31.3728 22.3191 31.0592 22.8155 30.7025C24.251 29.6718 25.5237 28.4315 26.591 27.023C29.108 23.7305 31.1825 18.7535 30.2885 12.038C30.2321 11.6069 30.0552 11.2005 29.7782 10.8653C29.5012 10.5302 29.1353 10.28 28.7225 10.1435C27.2897 9.67372 25.8458 9.23859 24.392 8.8385C22.7645 8.399 21.035 8 20 8ZM23.219 15.719C23.3598 15.5782 23.5508 15.4991 23.75 15.4991C23.9492 15.4991 24.1402 15.5782 24.281 15.719C24.4218 15.8598 24.501 16.0508 24.501 16.25C24.501 16.4492 24.4218 16.6402 24.281 16.781L19.781 21.281C19.7113 21.3508 19.6286 21.4063 19.5375 21.4441C19.4463 21.4819 19.3487 21.5013 19.25 21.5013C19.1514 21.5013 19.0537 21.4819 18.9626 21.4441C18.8714 21.4063 18.7887 21.3508 18.719 21.281L16.469 19.031C16.3993 18.9613 16.344 18.8785 16.3062 18.7874C16.2685 18.6963 16.2491 18.5986 16.2491 18.5C16.2491 18.4014 16.2685 18.3037 16.3062 18.2126C16.344 18.1215 16.3993 18.0387 16.469 17.969C16.5387 17.8993 16.6215 17.844 16.7126 17.8062C16.8037 17.7685 16.9014 17.7491 17 17.7491C17.0986 17.7491 17.1963 17.7685 17.2874 17.8062C17.3785 17.844 17.4613 17.8993 17.531 17.969L19.25 19.6895L23.219 15.719Z" fill="white"/>
</svg>
