<svg width="40" height="40" viewBox="0 0 40 40" fill="none" xmlns="http://www.w3.org/2000/svg">
<circle cx="20" cy="20" r="20" fill="#6A88B6"/>
<path d="M15.3333 25.9993C14.9667 25.9993 14.6527 25.8689 14.3913 25.608C14.1304 25.3467 14 25.0327 14 24.666V15.3327C14 14.966 14.1304 14.652 14.3913 14.3907C14.6527 14.1298 14.9667 13.9993 15.3333 13.9993H18.1333C18.2778 13.5993 18.5196 13.2771 18.8587 13.0327C19.1973 12.7882 19.5778 12.666 20 12.666C20.4222 12.666 20.8029 12.7882 21.142 13.0327C21.4807 13.2771 21.7222 13.5993 21.8667 13.9993H24.6667C25.0333 13.9993 25.3473 14.1298 25.6087 14.3907C25.8696 14.652 26 14.966 26 15.3327V24.666C26 25.0327 25.8696 25.3467 25.6087 25.608C25.3473 25.8689 25.0333 25.9993 24.6667 25.9993H15.3333ZM20 14.8327C20.1444 14.8327 20.264 14.7853 20.3587 14.6907C20.4529 14.5965 20.5 14.4771 20.5 14.3327C20.5 14.1882 20.4529 14.0687 20.3587 13.974C20.264 13.8798 20.1444 13.8327 20 13.8327C19.8556 13.8327 19.7362 13.8798 19.642 13.974C19.5473 14.0687 19.5 14.1882 19.5 14.3327C19.5 14.4771 19.5473 14.5965 19.642 14.6907C19.7362 14.7853 19.8556 14.8327 20 14.8327ZM19.8833 20.666H22C22.1889 20.666 22.3473 20.602 22.4753 20.474C22.6029 20.3465 22.6667 20.1882 22.6667 19.9993C22.6667 19.8105 22.6029 19.652 22.4753 19.524C22.3473 19.3965 22.1889 19.3327 22 19.3327H19.8833L20.4833 18.7327C20.6167 18.6105 20.6804 18.4576 20.6747 18.274C20.6693 18.0909 20.6 17.9327 20.4667 17.7993C20.3444 17.6771 20.1889 17.616 20 17.616C19.8111 17.616 19.6556 17.6771 19.5333 17.7993L17.8 19.5327C17.6778 19.6549 17.6167 19.8105 17.6167 19.9993C17.6167 20.1882 17.6778 20.3438 17.8 20.466L19.5333 22.1993C19.6556 22.3216 19.8111 22.3827 20 22.3827C20.1889 22.3827 20.3444 22.3216 20.4667 22.1993C20.5889 22.0771 20.65 21.9245 20.65 21.7413C20.65 21.5578 20.5889 21.3993 20.4667 21.266L19.8833 20.666Z" fill="white"/>
</svg>
