<svg width="30" height="36" viewBox="0 0 30 36" fill="none" xmlns="http://www.w3.org/2000/svg">
<path d="M21.875 10.1875V8.3125C21.875 8.14062 21.7344 8 21.5625 8H6.5625C6.39062 8 6.25 8.14062 6.25 8.3125V10.1875C6.25 10.3594 6.39062 10.5 6.5625 10.5H21.5625C21.7344 10.5 21.875 10.3594 21.875 10.1875ZM6.5625 13.625C6.39062 13.625 6.25 13.7656 6.25 13.9375V15.8125C6.25 15.9844 6.39062 16.125 6.5625 16.125H13.75C13.9219 16.125 14.0625 15.9844 14.0625 15.8125V13.9375C14.0625 13.7656 13.9219 13.625 13.75 13.625H6.5625ZM12.1875 31.2812H3.125V3.78125H25V17.2188C25 17.3906 25.1406 17.5312 25.3125 17.5312H27.5C27.6719 17.5312 27.8125 17.3906 27.8125 17.2188V2.21875C27.8125 1.52734 27.2539 0.96875 26.5625 0.96875H1.5625C0.871094 0.96875 0.3125 1.52734 0.3125 2.21875V32.8438C0.3125 33.5352 0.871094 34.0938 1.5625 34.0938H12.1875C12.3594 34.0938 12.5 33.9531 12.5 33.7812V31.5938C12.5 31.4219 12.3594 31.2812 12.1875 31.2812ZM29.5977 33.293L25.9531 29.6484C26.8242 28.4961 27.3438 27.0586 27.3438 25.5C27.3438 21.7031 24.2656 18.625 20.4688 18.625C16.6719 18.625 13.5938 21.7031 13.5938 25.5C13.5938 29.2969 16.6719 32.375 20.4688 32.375C21.8672 32.375 23.1641 31.957 24.25 31.2422L27.9492 34.9414C28.0117 35.0039 28.0898 35.0312 28.168 35.0312C28.2461 35.0312 28.3281 35 28.3867 34.9414L29.5977 33.7305C29.6265 33.7018 29.6493 33.6677 29.6649 33.6302C29.6805 33.5926 29.6886 33.5524 29.6886 33.5117C29.6886 33.4711 29.6805 33.4308 29.6649 33.3933C29.6493 33.3557 29.6265 33.3216 29.5977 33.293ZM20.4688 29.875C18.0508 29.875 16.0938 27.918 16.0938 25.5C16.0938 23.082 18.0508 21.125 20.4688 21.125C22.8867 21.125 24.8438 23.082 24.8438 25.5C24.8438 27.918 22.8867 29.875 20.4688 29.875Z" fill="#6A88B6"/>
</svg>
