<svg width="40" height="40" viewBox="0 0 40 40" fill="none" xmlns="http://www.w3.org/2000/svg">
<circle cx="20" cy="20" r="20" fill="#6A88B6"/>
<path d="M21.334 19.9993H25.0007L21.334 16.3327V19.9993ZM17.334 15.3327H22.0007L26.0007 19.3327V25.9993C26.0007 26.353 25.8602 26.6921 25.6101 26.9422C25.3601 27.1922 25.0209 27.3327 24.6673 27.3327H17.334C16.9804 27.3327 16.6412 27.1922 16.3912 26.9422C16.1411 26.6921 16.0007 26.353 16.0007 25.9993V23.9993H19.334V25.3327L22.0007 23.3327L19.334 21.3327V22.666H16.0007V16.666C16.0007 16.3124 16.1411 15.9733 16.3912 15.7232C16.6412 15.4732 16.9804 15.3327 17.334 15.3327ZM21.0007 13.9993H14.6673V22.666H16.0007V23.9993H14.6673C14.3137 23.9993 13.9746 23.8589 13.7245 23.6088C13.4745 23.3588 13.334 23.0196 13.334 22.666V13.9993C13.334 13.6457 13.4745 13.3066 13.7245 13.0565C13.9746 12.8065 14.3137 12.666 14.6673 12.666H19.6673L21.0007 13.9993Z" fill="white"/>
</svg>
