<svg width="14" height="16" viewBox="0 0 14 16" fill="none" xmlns="http://www.w3.org/2000/svg">
<path d="M0.906341 1.91879L9.28634 0.722128C9.33363 0.715343 9.38183 0.718805 9.42767 0.732278C9.47351 0.745751 9.51592 0.76892 9.55202 0.800216C9.58812 0.831512 9.61707 0.870203 9.63691 0.913666C9.65675 0.95713 9.66701 1.00435 9.66701 1.05213V14.9495C9.667 14.9972 9.65675 15.0443 9.63695 15.0877C9.61715 15.1312 9.58826 15.1698 9.55224 15.2011C9.51621 15.2324 9.47389 15.2556 9.42813 15.2691C9.38238 15.2826 9.33425 15.2861 9.28701 15.2795L0.905675 14.0828C0.746754 14.0602 0.601336 13.9809 0.496134 13.8597C0.390931 13.7385 0.333009 13.5833 0.333008 13.4228V2.57879C0.333009 2.41827 0.390931 2.26314 0.496134 2.14189C0.601336 2.02064 0.746754 1.94143 0.905675 1.91879H0.906341ZM1.66701 3.15746V12.8441L8.33367 13.7968V2.20479L1.66701 3.15746ZM10.3337 12.6675H12.3337V3.33413H10.3337V2.00079H13.0003C13.1772 2.00079 13.3467 2.07103 13.4717 2.19606C13.5968 2.32108 13.667 2.49065 13.667 2.66746V13.3341C13.667 13.5109 13.5968 13.6805 13.4717 13.8055C13.3467 13.9306 13.1772 14.0008 13.0003 14.0008H10.3337V12.6675ZM5.80034 8.00079L7.66701 10.6675H6.06701L5.00034 9.14346L3.93367 10.6675H2.33367L4.20034 8.00079L2.33367 5.33413H3.93367L5.00034 6.85813L6.06701 5.33413H7.66701L5.80034 8.00079Z" fill="white"/>
</svg>
