<svg width="40" height="40" viewBox="0 0 40 40" fill="none" xmlns="http://www.w3.org/2000/svg">
<circle cx="20" cy="20" r="20" fill="#6A88B6"/>
<path d="M31 13.5H18C16.9 13.5 16 14.4 16 15.5V24.5C16 25.0304 16.2107 25.5391 16.5858 25.9142C16.9609 26.2893 17.4696 26.5 18 26.5H31C32.11 26.5 33 25.61 33 24.5V15.5C33 14.9696 32.7893 14.4609 32.4142 14.0858C32.0391 13.7107 31.5304 13.5 31 13.5ZM31 17.17L24.5 20.5L18 17.17V15.5L24.5 18.81L31 15.5V17.17ZM14 24.5C14 24.67 14.03 24.83 14.05 25H10C9.448 25 9 24.55 9 24C9 23.45 9.448 23 10 23H14V24.5ZM12 15H14.05C14.03 15.17 14 15.33 14 15.5V17H12C11.45 17 11 16.55 11 16C11 15.45 11.45 15 12 15ZM10 20C10 19.45 10.45 19 11 19H14V21H11C10.45 21 10 20.55 10 20Z" fill="white"/>
</svg>
