<svg width="40" height="40" viewBox="0 0 40 40" fill="none" xmlns="http://www.w3.org/2000/svg">
<circle cx="20" cy="20" r="20" fill="#6A88B6"/>
<path d="M19.5 21.0625H17.8125C17.7793 21.0625 17.7476 21.0757 17.7241 21.0991C17.7007 21.1226 17.6875 21.1543 17.6875 21.1875V21.9375C17.6875 21.9707 17.7007 22.0024 17.7241 22.0259C17.7476 22.0493 17.7793 22.0625 17.8125 22.0625H19.5V23.75C19.5 23.7832 19.5132 23.8149 19.5366 23.8384C19.5601 23.8618 19.5918 23.875 19.625 23.875H20.375C20.4082 23.875 20.4399 23.8618 20.4634 23.8384C20.4868 23.8149 20.5 23.7832 20.5 23.75V22.0625H22.1875C22.2207 22.0625 22.2524 22.0493 22.2759 22.0259C22.2993 22.0024 22.3125 21.9707 22.3125 21.9375V21.1875C22.3125 21.1543 22.2993 21.1226 22.2759 21.0991C22.2524 21.0757 22.2207 21.0625 22.1875 21.0625H20.5V19.375C20.5 19.3418 20.4868 19.3101 20.4634 19.2866C20.4399 19.2632 20.4082 19.25 20.375 19.25H19.625C19.5918 19.25 19.5601 19.2632 19.5366 19.2866C19.5132 19.3101 19.5 19.3418 19.5 19.375V21.0625ZM25.3531 16.5109C25.4469 16.6047 25.5 16.7312 25.5 16.8641V26.5C25.5 26.7766 25.2766 27 25 27H15C14.7234 27 14.5 26.7766 14.5 26.5V13.5C14.5 13.2234 14.7234 13 15 13H21.6359C21.7688 13 21.8969 13.0531 21.9906 13.1469L25.3531 16.5109ZM24.3469 17.0938L21.4062 14.1531V17.0938H24.3469Z" fill="white"/>
</svg>
