<svg width="40" height="40" viewBox="0 0 40 40" fill="none" xmlns="http://www.w3.org/2000/svg">
<circle cx="20" cy="20" r="20" fill="#6A88B6"/>
<path d="M10.781 18.281C10.6404 18.1404 10.5614 17.9497 10.5614 17.7508C10.5614 17.5519 10.6404 17.3612 10.781 17.2205L17.75 10.25L17.855 10.1615C17.9995 10.0623 18.1742 10.0168 18.3488 10.033C18.5233 10.0492 18.6867 10.1259 18.8105 10.25L18.8975 10.355C18.997 10.4996 19.0428 10.6745 19.0269 10.8493C19.0111 11.0241 18.9345 11.1878 18.8105 11.312L13.1225 17H29.75C29.9489 17 30.1397 17.0791 30.2803 17.2197C30.421 17.3604 30.5 17.5511 30.5 17.75C30.5 17.9489 30.421 18.1397 30.2803 18.2804C30.1397 18.421 29.9489 18.5 29.75 18.5H11.3105C11.112 18.5 10.9216 18.4212 10.781 18.281ZM9.5 22.25C9.5 22.0511 9.57902 21.8604 9.71967 21.7197C9.86032 21.5791 10.0511 21.5 10.25 21.5H28.6895C28.8377 21.5001 28.9826 21.544 29.1059 21.6263C29.2291 21.7087 29.3252 21.8257 29.3821 21.9626C29.4389 22.0995 29.4538 22.2501 29.4251 22.3955C29.3963 22.5409 29.3251 22.6746 29.2205 22.7795L22.25 29.75L22.145 29.8385C21.9906 29.9427 21.8031 29.9858 21.6188 29.9595C21.4345 29.9333 21.2664 29.8396 21.1473 29.6965C21.0281 29.5534 20.9663 29.3712 20.9738 29.1852C20.9814 28.9991 21.0577 28.8225 21.188 28.6895L26.882 23H10.25C10.0511 23 9.86032 22.921 9.71967 22.7804C9.57902 22.6397 9.5 22.4489 9.5 22.25Z" fill="white"/>
</svg>
