<svg width="14" height="14" viewBox="0 0 14 14" fill="none" xmlns="http://www.w3.org/2000/svg">
<path d="M6.99967 0.333984C10.6817 0.333984 13.6663 3.31865 13.6663 7.00065C13.6663 10.6827 10.6817 13.6673 6.99967 13.6673C3.31767 13.6673 0.333008 10.6827 0.333008 7.00065C0.333008 3.31865 3.31767 0.333984 6.99967 0.333984ZM6.99967 1.33398C5.49678 1.33398 4.05544 1.93101 2.99274 2.99371C1.93003 4.05642 1.33301 5.49776 1.33301 7.00065C1.33301 8.50354 1.93003 9.94488 2.99274 11.0076C4.05544 12.0703 5.49678 12.6673 6.99967 12.6673C8.50257 12.6673 9.94391 12.0703 11.0066 11.0076C12.0693 9.94488 12.6663 8.50354 12.6663 7.00065C12.6663 5.49776 12.0693 4.05642 11.0066 2.99371C9.94391 1.93101 8.50257 1.33398 6.99967 1.33398ZM6.99967 3.66732C7.13228 3.66732 7.25946 3.72 7.35323 3.81376C7.447 3.90753 7.49967 4.03471 7.49967 4.16732V6.50065H9.83301C9.96562 6.50065 10.0928 6.55333 10.1866 6.6471C10.2803 6.74087 10.333 6.86804 10.333 7.00065C10.333 7.13326 10.2803 7.26044 10.1866 7.3542C10.0928 7.44797 9.96562 7.50065 9.83301 7.50065H7.49967V9.83398C7.49967 9.96659 7.447 10.0938 7.35323 10.1875C7.25946 10.2813 7.13228 10.334 6.99967 10.334C6.86707 10.334 6.73989 10.2813 6.64612 10.1875C6.55235 10.0938 6.49967 9.96659 6.49967 9.83398V7.50065H4.16634C4.03373 7.50065 3.90656 7.44797 3.81279 7.3542C3.71902 7.26044 3.66634 7.13326 3.66634 7.00065C3.66634 6.86804 3.71902 6.74087 3.81279 6.6471C3.90656 6.55333 4.03373 6.50065 4.16634 6.50065H6.49967V4.16732C6.49967 4.03471 6.55235 3.90753 6.64612 3.81376C6.73989 3.72 6.86707 3.66732 6.99967 3.66732Z" fill="white"/>
</svg>
