<svg width="13" height="13" viewBox="0 0 13 13" fill="none" xmlns="http://www.w3.org/2000/svg">
<path d="M8.98234 2.60522L10.3943 4.01655L8.98234 2.60522ZM9.89034 1.36188L6.07234 5.17989C5.87507 5.37688 5.74053 5.62787 5.68567 5.90122L5.33301 7.66655L7.09834 7.31322C7.37167 7.25855 7.62234 7.12455 7.81967 6.92722L11.6377 3.10922C11.7524 2.99449 11.8434 2.85828 11.9055 2.70838C11.9676 2.55847 11.9996 2.39781 11.9996 2.23555C11.9996 2.0733 11.9676 1.91263 11.9055 1.76273C11.8434 1.61282 11.7524 1.47662 11.6377 1.36188C11.5229 1.24715 11.3867 1.15614 11.2368 1.09405C11.0869 1.03196 10.9263 1 10.764 1C10.6018 1 10.4411 1.03196 10.2912 1.09405C10.1413 1.15614 10.0051 1.24715 9.89034 1.36188V1.36188Z" stroke="#011A42" stroke-width="1.33333" stroke-linecap="round" stroke-linejoin="round"/>
<path d="M10.666 8.99967V10.9997C10.666 11.3533 10.5255 11.6924 10.2755 11.9425C10.0254 12.1925 9.6863 12.333 9.33268 12.333H1.99935C1.64573 12.333 1.30659 12.1925 1.05654 11.9425C0.806491 11.6924 0.666016 11.3533 0.666016 10.9997V3.66634C0.666016 3.31272 0.806491 2.97358 1.05654 2.72353C1.30659 2.47348 1.64573 2.33301 1.99935 2.33301H3.99935" stroke="#011A42" stroke-width="1.33333" stroke-linecap="round" stroke-linejoin="round"/>
</svg>
