<svg width="40" height="40" viewBox="0 0 40 40" fill="none" xmlns="http://www.w3.org/2000/svg">
<circle cx="20" cy="20" r="20" fill="#6A88B6"/>
<path d="M20 13C21.8565 13 23.637 13.7375 24.9497 15.0503C26.2625 16.363 27 18.1435 27 20C27 21.8565 26.2625 23.637 24.9497 24.9497C23.637 26.2625 21.8565 27 20 27C18.1435 27 16.363 26.2625 15.0503 24.9497C13.7375 23.637 13 21.8565 13 20C13 18.1435 13.7375 16.363 15.0503 15.0503C16.363 13.7375 18.1435 13 20 13ZM19.128 21.381L17.573 19.825C17.5173 19.7693 17.4511 19.725 17.3782 19.6949C17.3054 19.6647 17.2273 19.6492 17.1485 19.6492C17.0697 19.6492 16.9916 19.6647 16.9188 19.6949C16.8459 19.725 16.7797 19.7693 16.724 19.825C16.6114 19.9376 16.5482 20.0903 16.5482 20.2495C16.5482 20.4087 16.6114 20.5614 16.724 20.674L18.704 22.654C18.7596 22.71 18.8257 22.7545 18.8986 22.7848C18.9714 22.8152 19.0496 22.8308 19.1285 22.8308C19.2074 22.8308 19.2856 22.8152 19.3584 22.7848C19.4313 22.7545 19.4974 22.71 19.553 22.654L23.653 18.553C23.7095 18.4975 23.7544 18.4313 23.7852 18.3584C23.816 18.2854 23.8321 18.207 23.8324 18.1278C23.8328 18.0486 23.8175 17.9702 23.7874 17.8969C23.7573 17.8236 23.7129 17.7571 23.657 17.701C23.601 17.645 23.5345 17.6006 23.4613 17.5704C23.388 17.5402 23.3096 17.5248 23.2304 17.5251C23.1512 17.5253 23.0728 17.5413 22.9998 17.572C22.9268 17.6027 22.8606 17.6476 22.805 17.704L19.128 21.381Z" fill="white"/>
</svg>
