<svg width="14" height="10" viewBox="0 0 14 10" fill="none" xmlns="http://www.w3.org/2000/svg">
<path d="M5.66732 4.33332H3.73465L3.73532 4.32732C3.82237 3.90108 3.99274 3.49622 4.23665 3.13599C4.59962 2.6012 5.10875 2.1821 5.70332 1.92866C5.90465 1.84332 6.11465 1.77799 6.32865 1.73466C6.77258 1.64465 7.23006 1.64465 7.67398 1.73466C8.31197 1.86539 8.89739 2.18093 9.35732 2.64199L10.3013 1.70066C9.87586 1.27508 9.37249 0.935352 8.81865 0.699991C8.5362 0.58041 8.24252 0.489293 7.94198 0.427991C7.32188 0.301998 6.68276 0.301998 6.06265 0.427991C5.76189 0.489547 5.46799 0.580886 5.18532 0.700657C4.35234 1.05406 3.63927 1.64072 3.13198 2.38999C2.79058 2.89523 2.55183 3.46265 2.42932 4.05999C2.41065 4.14999 2.40065 4.24199 2.38732 4.33332H0.333984L3.00065 6.99999L5.66732 4.33332ZM8.33398 5.66666H10.2667L10.266 5.67199C10.0918 6.5265 9.58813 7.27805 8.86399 7.76399C8.50386 8.00811 8.09896 8.17849 7.67265 8.26532C7.22895 8.35533 6.77169 8.35533 6.32798 8.26532C5.90174 8.17828 5.49688 8.0079 5.13665 7.76399C4.95973 7.64432 4.79455 7.50816 4.64332 7.35732L3.70065 8.29999C4.12632 8.72545 4.62993 9.06496 5.18398 9.29999C5.46665 9.41999 5.76198 9.51132 6.06065 9.57199C6.68053 9.69806 7.31944 9.69806 7.93932 9.57199C9.13435 9.32396 10.1855 8.6196 10.8693 7.60866C11.2104 7.1038 11.4489 6.53684 11.5713 5.93999C11.5893 5.84999 11.6 5.75799 11.6133 5.66666H13.6673L11.0007 2.99999L8.33398 5.66666Z" fill="#6A88B6"/>
</svg>
