<svg width="40" height="40" viewBox="0 0 40 40" fill="none" xmlns="http://www.w3.org/2000/svg">
<circle cx="20" cy="20" r="20" fill="#6A88B6"/>
<path d="M24.474 13.4081L26.592 15.5251L24.474 13.4081ZM25.836 11.5431L20.109 17.2701C19.8131 17.5656 19.6113 17.9421 19.529 18.3521L19 21.0001L21.648 20.4701C22.058 20.3881 22.434 20.1871 22.73 19.8911L28.457 14.1641C28.6291 13.992 28.7656 13.7877 28.8588 13.5628C28.9519 13.338 28.9998 13.097 28.9998 12.8536C28.9998 12.6102 28.9519 12.3692 28.8588 12.1443C28.7656 11.9195 28.6291 11.7152 28.457 11.5431C28.2849 11.371 28.0806 11.2345 27.8557 11.1413C27.6309 11.0482 27.3899 11.0002 27.1465 11.0002C26.9031 11.0002 26.6621 11.0482 26.4373 11.1413C26.2124 11.2345 26.0081 11.371 25.836 11.5431V11.5431Z" stroke="white" stroke-width="2" stroke-linecap="round" stroke-linejoin="round"/>
<path d="M27 23V26C27 26.5304 26.7893 27.0391 26.4142 27.4142C26.0391 27.7893 25.5304 28 25 28H14C13.4696 28 12.9609 27.7893 12.5858 27.4142C12.2107 27.0391 12 26.5304 12 26V15C12 14.4696 12.2107 13.9609 12.5858 13.5858C12.9609 13.2107 13.4696 13 14 13H17" stroke="white" stroke-width="2" stroke-linecap="round" stroke-linejoin="round"/>
</svg>
