<svg width="40" height="40" viewBox="0 0 40 40" fill="none" xmlns="http://www.w3.org/2000/svg">
<g filter="url(#filter0_d_117_2625)">
<path d="M21.414 20L24.243 17.172C24.4306 16.9844 24.5361 16.7299 24.5361 16.4645C24.5361 16.1991 24.4306 15.9446 24.243 15.757C24.0554 15.5694 23.8009 15.4639 23.5355 15.4639C23.2701 15.4639 23.0156 15.5694 22.828 15.757L20 18.586L17.172 15.757C16.9844 15.5694 16.7299 15.4639 16.4645 15.4639C16.1991 15.4639 15.9446 15.5694 15.757 15.757C15.5694 15.9446 15.4639 16.1991 15.4639 16.4645C15.4639 16.7299 15.5694 16.9844 15.757 17.172L18.586 20L15.757 22.828C15.5694 23.0156 15.4639 23.2701 15.4639 23.5355C15.4639 23.8009 15.5694 24.0554 15.757 24.243C15.9446 24.4306 16.1991 24.5361 16.4645 24.5361C16.7299 24.5361 16.9844 24.4306 17.172 24.243L20 21.414L22.828 24.243C23.0156 24.4306 23.2701 24.5361 23.5355 24.5361C23.8009 24.5361 24.0554 24.4306 24.243 24.243C24.4306 24.0554 24.5361 23.8009 24.5361 23.5355C24.5361 23.2701 24.4306 23.0156 24.243 22.828L21.414 20ZM20 30C14.477 30 10 25.523 10 20C10 14.477 14.477 10 20 10C25.523 10 30 14.477 30 20C30 25.523 25.523 30 20 30Z" fill="#D9D9D9"/>
</g>
<defs>
<filter id="filter0_d_117_2625" x="0" y="0" width="40" height="40" filterUnits="userSpaceOnUse" color-interpolation-filters="sRGB">
<feFlood flood-opacity="0" result="BackgroundImageFix"/>
<feColorMatrix in="SourceAlpha" type="matrix" values="0 0 0 0 0 0 0 0 0 0 0 0 0 0 0 0 0 0 127 0" result="hardAlpha"/>
<feOffset/>
<feGaussianBlur stdDeviation="5"/>
<feComposite in2="hardAlpha" operator="out"/>
<feColorMatrix type="matrix" values="0 0 0 0 0 0 0 0 0 0 0 0 0 0 0 0 0 0 0.6 0"/>
<feBlend mode="normal" in2="BackgroundImageFix" result="effect1_dropShadow_117_2625"/>
<feBlend mode="normal" in="SourceGraphic" in2="effect1_dropShadow_117_2625" result="shape"/>
</filter>
</defs>
</svg>
