<svg width="25" height="25" viewBox="0 0 25 25" fill="none" xmlns="http://www.w3.org/2000/svg">
<path d="M5 20L10 15L12.25 17.2188L15 13.75L20 20H5ZM7.5 10C6.8125 10 6.22417 9.755 5.735 9.265C5.245 8.77583 5 8.1875 5 7.5C5 6.8125 5.245 6.22417 5.735 5.735C6.22417 5.245 6.8125 5 7.5 5C8.1875 5 8.77625 5.245 9.26625 5.735C9.75542 6.22417 10 6.8125 10 7.5C10 8.1875 9.75542 8.77583 9.26625 9.265C8.77625 9.755 8.1875 10 7.5 10ZM3.75 25C2.70833 25 1.82292 24.6354 1.09375 23.9062C0.364583 23.1771 0 22.2917 0 21.25V3.75C0 2.70833 0.364583 1.82292 1.09375 1.09375C1.82292 0.364583 2.70833 0 3.75 0H21.25C22.2917 0 23.1771 0.364583 23.9062 1.09375C24.6354 1.82292 25 2.70833 25 3.75V21.25C25 22.2917 24.6354 23.1771 23.9062 23.9062C23.1771 24.6354 22.2917 25 21.25 25H3.75ZM3.75 22.5H21.25C21.6042 22.5 21.9008 22.38 22.14 22.14C22.38 21.9008 22.5 21.6042 22.5 21.25V3.75C22.5 3.39583 22.38 3.09875 22.14 2.85875C21.9008 2.61958 21.6042 2.5 21.25 2.5H3.75C3.39583 2.5 3.09875 2.61958 2.85875 2.85875C2.61958 3.09875 2.5 3.39583 2.5 3.75V21.25C2.5 21.6042 2.61958 21.9008 2.85875 22.14C3.09875 22.38 3.39583 22.5 3.75 22.5Z" fill="white"/>
</svg>
