<svg width="25" height="25" viewBox="0 0 25 25" fill="none" xmlns="http://www.w3.org/2000/svg">
<path d="M9.72222 0H1.38889C1.02053 0 0.667263 0.146329 0.406796 0.406796C0.146329 0.667263 0 1.02053 0 1.38889V9.72222C0 10.0906 0.146329 10.4438 0.406796 10.7043C0.667263 10.9648 1.02053 11.1111 1.38889 11.1111H9.72222C10.0906 11.1111 10.4438 10.9648 10.7043 10.7043C10.9648 10.4438 11.1111 10.0906 11.1111 9.72222V1.38889C11.1111 1.02053 10.9648 0.667263 10.7043 0.406796C10.4438 0.146329 10.0906 0 9.72222 0ZM8.33333 8.33333H2.77778V2.77778H8.33333V8.33333ZM23.6111 13.8889H15.2778C14.9094 13.8889 14.5562 14.0352 14.2957 14.2957C14.0352 14.5562 13.8889 14.9094 13.8889 15.2778V23.6111C13.8889 23.9795 14.0352 24.3327 14.2957 24.5932C14.5562 24.8537 14.9094 25 15.2778 25H23.6111C23.9795 25 24.3327 24.8537 24.5932 24.5932C24.8537 24.3327 25 23.9795 25 23.6111V15.2778C25 14.9094 24.8537 14.5562 24.5932 14.2957C24.3327 14.0352 23.9795 13.8889 23.6111 13.8889ZM22.2222 22.2222H16.6667V16.6667H22.2222V22.2222ZM19.4444 0C16.3806 0 13.8889 2.49167 13.8889 5.55556C13.8889 8.61944 16.3806 11.1111 19.4444 11.1111C22.5083 11.1111 25 8.61944 25 5.55556C25 2.49167 22.5083 0 19.4444 0ZM19.4444 8.33333C17.9125 8.33333 16.6667 7.0875 16.6667 5.55556C16.6667 4.02361 17.9125 2.77778 19.4444 2.77778C20.9764 2.77778 22.2222 4.02361 22.2222 5.55556C22.2222 7.0875 20.9764 8.33333 19.4444 8.33333ZM5.55556 13.8889C2.49167 13.8889 0 16.3806 0 19.4444C0 22.5083 2.49167 25 5.55556 25C8.61944 25 11.1111 22.5083 11.1111 19.4444C11.1111 16.3806 8.61944 13.8889 5.55556 13.8889ZM5.55556 22.2222C4.02361 22.2222 2.77778 20.9764 2.77778 19.4444C2.77778 17.9125 4.02361 16.6667 5.55556 16.6667C7.0875 16.6667 8.33333 17.9125 8.33333 19.4444C8.33333 20.9764 7.0875 22.2222 5.55556 22.2222Z" fill="white"/>
</svg>
