<svg width="25" height="25" viewBox="0 0 25 25" fill="none" xmlns="http://www.w3.org/2000/svg">
<path d="M22.5 0H2.5C1.83797 0.00328556 1.20399 0.267733 0.735863 0.735863C0.267733 1.20399 0.00328556 1.83797 0 2.5V22.5C0.00328556 23.162 0.267733 23.796 0.735863 24.2641C1.20399 24.7323 1.83797 24.9967 2.5 25H22.5C23.162 24.9967 23.796 24.7323 24.2641 24.2641C24.7323 23.796 24.9967 23.162 25 22.5V2.5C24.9967 1.83797 24.7323 1.20399 24.2641 0.735863C23.796 0.267733 23.162 0.00328556 22.5 0ZM22 3V21.025C20.9942 18.8581 19.2664 17.1083 17.1125 16.075C18.0169 15.1641 18.6314 14.0059 18.8785 12.7463C19.1255 11.4866 18.9941 10.1821 18.5008 8.99706C18.0075 7.81203 17.1743 6.7996 16.1064 6.08741C15.0385 5.37522 13.7836 4.99517 12.5 4.99517C11.2164 4.99517 9.96151 5.37522 8.8936 6.08741C7.82568 6.7996 6.99254 7.81203 6.49921 8.99706C6.00589 10.1821 5.87447 11.4866 6.12154 12.7463C6.3686 14.0059 6.98308 15.1641 7.8875 16.075C5.73359 17.1083 4.00583 18.8581 3 21.025V3H22ZM9 11.5C9 10.8078 9.20527 10.1311 9.58986 9.5555C9.97444 8.97993 10.5211 8.53133 11.1606 8.26642C11.8001 8.00151 12.5039 7.9322 13.1828 8.06725C13.8617 8.2023 14.4854 8.53564 14.9749 9.02513C15.4644 9.51461 15.7977 10.1383 15.9327 10.8172C16.0678 11.4961 15.9985 12.1999 15.7336 12.8394C15.4687 13.4789 15.0201 14.0256 14.4445 14.4101C13.8689 14.7947 13.1922 15 12.5 15C11.5728 14.9967 10.6844 14.6269 10.0288 13.9712C9.3731 13.3156 9.00329 12.4272 9 11.5ZM12.5 18C14.2157 17.993 15.8809 18.5805 17.2125 19.6625C18.0023 20.3068 18.6566 21.1013 19.1375 22H5.8625C6.3434 21.1013 6.99767 20.3068 7.7875 19.6625C9.11907 18.5805 10.7843 17.993 12.5 18Z" fill="white"/>
</svg>
