<?xml version="1.0" standalone="no"?>
<!DOCTYPE svg PUBLIC "-//W3C//DTD SVG 20010904//EN"
 "http://www.w3.org/TR/2001/REC-SVG-20010904/DTD/svg10.dtd">
<svg version="1.0" xmlns="http://www.w3.org/2000/svg"
 width="512.000000pt" height="512.000000pt" viewBox="0 0 512.000000 512.000000"
 preserveAspectRatio="xMidYMid meet">

<g transform="translate(0.000000,512.000000) scale(0.100000,-0.100000)"
fill="#000000" stroke="none">
<path d="M1925 4695 c-737 -106 -1352 -197 -1366 -203 -42 -17 -91 -64 -110
-107 -18 -38 -19 -115 -19 -1825 0 -1715 1 -1787 19 -1826 23 -50 80 -99 135
-113 45 -12 2696 -391 2735 -391 13 0 38 15 57 34 l34 34 0 2256 c0 1727 -3
2261 -12 2281 -15 33 -57 55 -100 54 -18 -1 -636 -88 -1373 -194z m1065 -2135
c0 -1766 -1 -1850 -18 -1850 -10 0 -490 67 -1067 150 -577 82 -1051 150 -1052
150 -2 0 -3 697 -3 1549 l0 1550 42 6 c369 55 2042 293 2066 294 l32 1 0
-1850z"/>
<path d="M1077 3398 c28 -36 575 -821 579 -831 2 -7 -128 -201 -290 -432
l-294 -420 250 -3 c148 -1 255 2 262 7 6 5 83 113 171 240 88 127 162 230 165
230 3 0 77 -103 165 -230 88 -127 165 -235 171 -240 7 -5 114 -8 262 -7 l250
3 -294 420 c-162 230 -294 422 -294 425 0 3 132 195 294 425 l294 420 -250 3
c-148 1 -255 -2 -262 -7 -6 -5 -83 -113 -171 -240 -88 -127 -162 -230 -165
-230 -3 0 -79 106 -170 237 l-166 237 -258 3 c-208 2 -257 0 -249 -10z"/>
<path d="M3630 4265 l0 -215 320 0 320 0 0 -1490 0 -1490 -320 0 -320 0 0
-215 0 -215 448 0 c414 0 450 2 487 19 49 23 89 64 109 113 14 33 16 228 16
1793 0 1708 -1 1757 -19 1793 -25 48 -66 87 -113 106 -32 14 -103 16 -483 16
l-445 0 0 -215z"/>
</g>
</svg>
