<svg width="14" height="15" viewBox="0 0 14 15" fill="none" xmlns="http://www.w3.org/2000/svg">
<path d="M8.43502 1.942C8.32103 1.83742 8.17105 1.78092 8.0164 1.78427C7.86175 1.78763 7.71437 1.85058 7.60502 1.96L0.990017 8.576C0.934231 8.63172 0.889976 8.69789 0.859781 8.77073C0.829587 8.84357 0.814045 8.92165 0.814045 9.0005C0.814045 9.07934 0.829587 9.15742 0.859781 9.23026C0.889976 9.3031 0.934231 9.36927 0.990017 9.425L1.91602 10.351C1.91902 10.351 1.92602 10.354 1.94002 10.354C1.97002 10.354 2.01002 10.343 2.04802 10.318C2.41349 10.0742 2.85217 9.96454 3.28938 10.0078C3.72659 10.051 4.13531 10.2444 4.44597 10.555C4.75663 10.8657 4.95003 11.2744 4.99325 11.7116C5.03647 12.1488 4.92684 12.5875 4.68302 12.953C4.66106 12.9849 4.64858 13.0223 4.64702 13.061C4.64702 13.074 4.64902 13.081 4.65002 13.084L5.55402 13.989C5.61082 14.0459 5.6785 14.0908 5.75301 14.1211C5.82752 14.1514 5.90736 14.1663 5.98777 14.1651C6.06818 14.1639 6.14753 14.1465 6.2211 14.114C6.29467 14.0816 6.36095 14.0346 6.41602 13.976L13.015 6.964C13.0694 6.90611 13.1117 6.83802 13.1395 6.76366C13.1674 6.6893 13.1802 6.61016 13.1772 6.53081C13.1742 6.45147 13.1555 6.37351 13.1222 6.30144C13.0889 6.22938 13.0415 6.16465 12.983 6.111L12.097 5.298H12.094C12.0798 5.29517 12.0652 5.29517 12.051 5.298C11.9946 5.30976 11.9432 5.33876 11.904 5.381C11.7369 5.57042 11.5337 5.72461 11.3063 5.83456C11.0789 5.94452 10.8318 6.00802 10.5796 6.02136C10.3273 6.0347 10.075 5.99761 9.83723 5.91226C9.59949 5.82691 9.38116 5.69501 9.195 5.52428C9.00884 5.35354 8.85859 5.1474 8.75305 4.91791C8.6475 4.68842 8.58878 4.44019 8.58031 4.18774C8.57184 3.93528 8.61379 3.68367 8.70371 3.44762C8.79363 3.21157 8.92972 2.99583 9.10402 2.813C9.14247 2.77009 9.16659 2.71626 9.17302 2.659C9.17473 2.64493 9.17371 2.63067 9.17002 2.617V2.614L8.43602 1.942H8.43502ZM7.04002 1.394C7.29513 1.13889 7.63889 0.992118 7.99958 0.984293C8.36028 0.976468 8.71008 1.10819 8.97602 1.352L9.70902 2.025C9.92802 2.225 9.98902 2.498 9.96902 2.731C9.94802 2.961 9.84702 3.186 9.69102 3.355C9.59338 3.4615 9.51767 3.58619 9.46823 3.72195C9.41878 3.85771 9.39655 4.00188 9.40282 4.14623C9.40909 4.29057 9.44373 4.43228 9.50476 4.56324C9.56579 4.6942 9.65202 4.81186 9.75852 4.9095C9.86502 5.00713 9.98971 5.08284 10.1255 5.13229C10.2612 5.18174 10.4054 5.20396 10.5497 5.19769C10.6941 5.19143 10.8358 5.15679 10.9668 5.09576C11.0977 5.03473 11.2154 4.9485 11.313 4.842C11.468 4.672 11.683 4.552 11.91 4.511C12.038 4.4853 12.1702 4.48972 12.2962 4.52391C12.4222 4.5581 12.5386 4.62112 12.636 4.708L13.523 5.521C13.6596 5.6463 13.7699 5.79747 13.8476 5.96574C13.9253 6.13401 13.9688 6.31603 13.9755 6.50124C13.9823 6.68645 13.9523 6.87117 13.8871 7.04468C13.822 7.21818 13.723 7.37703 13.596 7.512L6.99702 14.524C6.86853 14.6605 6.71392 14.7699 6.54238 14.8455C6.37083 14.9212 6.18583 14.9616 5.99837 14.9644C5.8109 14.9672 5.62478 14.9323 5.45105 14.8618C5.27732 14.7913 5.11952 14.6866 4.98702 14.554L4.08302 13.65C3.73602 13.303 3.82002 12.803 4.01602 12.51C4.15663 12.2984 4.21969 12.0447 4.19449 11.7919C4.16928 11.5392 4.05736 11.3029 3.87773 11.1233C3.69811 10.9437 3.46184 10.8317 3.20907 10.8065C2.95629 10.7813 2.70258 10.8444 2.49102 10.985C2.19602 11.18 1.69702 11.264 1.35002 10.916L0.424017 9.99C0.294 9.85999 0.190864 9.70565 0.120498 9.53579C0.0501328 9.36592 0.013916 9.18386 0.013916 9C0.013916 8.81613 0.0501328 8.63407 0.120498 8.46421C0.190864 8.29434 0.294 8.14 0.424017 8.01L7.04002 1.395V1.394Z" fill="white"/>
</svg>
