<svg width="16" height="16" viewBox="0 0 16 16" fill="none" xmlns="http://www.w3.org/2000/svg">
<path fill-rule="evenodd" clip-rule="evenodd" d="M4.18983 2.66675H11.8089C12.213 2.66675 12.6006 2.82729 12.8864 3.11306C13.1721 3.39883 13.3327 3.78642 13.3327 4.19056V11.8096C13.3327 12.2137 13.1721 12.6013 12.8864 12.8871C12.6006 13.1729 12.213 13.3334 11.8089 13.3334H4.18983C3.78569 13.3334 3.3981 13.1729 3.11233 12.8871C2.82656 12.6013 2.66602 12.2137 2.66602 11.8096V4.19056C2.66602 3.78642 2.82656 3.39883 3.11233 3.11306C3.3981 2.82729 3.78569 2.66675 4.18983 2.66675V2.66675Z" stroke="white" stroke-linecap="round" stroke-linejoin="round"/>
<path d="M5.71289 10.9981V4.95239" stroke="white" stroke-linecap="round" stroke-linejoin="round"/>
<path d="M8 11.0362V8" stroke="white" stroke-linecap="round" stroke-linejoin="round"/>
<path d="M10.2852 11.0477V6.47632" stroke="white" stroke-linecap="round" stroke-linejoin="round"/>
</svg>
