<svg width="28" height="29" viewBox="0 0 28 29" fill="none" xmlns="http://www.w3.org/2000/svg">
<path d="M24.749 23.9298C26.1851 22.2019 27.184 20.1536 27.661 17.958C28.1381 15.7624 28.0793 13.4843 27.4897 11.3162C26.9001 9.14819 25.797 7.15404 24.2737 5.50249C22.7504 3.85094 20.8517 2.59057 18.7383 1.828C16.6248 1.06543 14.3589 0.823095 12.132 1.12149C9.90508 1.41989 7.78282 2.25025 5.94472 3.54232C4.10662 4.83439 2.60675 6.55016 1.57199 8.54449C0.537238 10.5388 -0.00196259 12.753 5.36765e-06 14.9998C0.000760542 18.266 1.15175 21.4276 3.25101 23.9298L3.23101 23.9468C3.30101 24.0308 3.38101 24.1028 3.45301 24.1858C3.54301 24.2888 3.64001 24.3858 3.73301 24.4858C4.01301 24.7898 4.30101 25.0818 4.60301 25.3558C4.69501 25.4398 4.79001 25.5178 4.88301 25.5978C5.20301 25.8738 5.53201 26.1358 5.87301 26.3798C5.91701 26.4098 5.95701 26.4488 6.00101 26.4798V26.4678C8.34311 28.116 11.1371 29.0005 14.001 29.0005C16.8649 29.0005 19.6589 28.116 22.001 26.4678V26.4798C22.045 26.4488 22.084 26.4098 22.129 26.3798C22.469 26.1348 22.799 25.8738 23.119 25.5978C23.212 25.5178 23.307 25.4388 23.399 25.3558C23.701 25.0808 23.989 24.7898 24.269 24.4858C24.362 24.3858 24.458 24.2888 24.549 24.1858C24.62 24.1028 24.701 24.0308 24.771 23.9458L24.749 23.9298ZM14 6.99981C14.89 6.99981 15.7601 7.26374 16.5001 7.7582C17.2401 8.25267 17.8169 8.95547 18.1575 9.77774C18.4981 10.6 18.5872 11.5048 18.4135 12.3777C18.2399 13.2506 17.8113 14.0525 17.182 14.6818C16.5527 15.3111 15.7508 15.7397 14.8779 15.9133C14.005 16.087 13.1002 15.9979 12.2779 15.6573C11.4557 15.3167 10.7529 14.7399 10.2584 13.9999C9.76393 13.2599 9.50001 12.3898 9.50001 11.4998C9.50001 10.3063 9.97411 9.16175 10.818 8.31783C11.6619 7.47392 12.8065 6.99981 14 6.99981ZM6.00701 23.9298C6.02435 22.6168 6.55795 21.3634 7.49236 20.4408C8.42677 19.5181 9.68686 19.0005 11 18.9998H17C18.3132 19.0005 19.5732 19.5181 20.5076 20.4408C21.4421 21.3634 21.9757 22.6168 21.993 23.9298C19.7998 25.9061 16.9523 26.9999 14 26.9999C11.0477 26.9999 8.20016 25.9061 6.00701 23.9298Z" fill="#E0E0E0"/>
</svg>
