<svg width="13" height="14" viewBox="0 0 13 14" fill="none" xmlns="http://www.w3.org/2000/svg">
<path fill-rule="evenodd" clip-rule="evenodd" d="M1.8 0.5H1.75C1.521 0.5 1.324 0.5 1.15 0.541C0.880636 0.605365 0.63435 0.743046 0.438431 0.938789C0.242511 1.13453 0.104608 1.38069 0.04 1.65C-3.72529e-08 1.824 0 2.02 0 2.25V4.75C0 4.979 7.45058e-09 5.176 0.041 5.35C0.105365 5.61936 0.243046 5.86565 0.438789 6.06157C0.634532 6.25749 0.880694 6.39539 1.15 6.46C1.324 6.5 1.52 6.5 1.75 6.5H4.25C4.479 6.5 4.676 6.5 4.85 6.459C5.11936 6.39464 5.36565 6.25695 5.56157 6.06121C5.75749 5.86547 5.89539 5.61931 5.96 5.35C6 5.176 6 4.98 6 4.75V2.25C6 2.021 6 1.824 5.959 1.65C5.89464 1.38064 5.75695 1.13435 5.56121 0.938431C5.36547 0.742511 5.11931 0.604608 4.85 0.54C4.676 0.5 4.48 0.5 4.25 0.5H1.8ZM1.383 1.514C1.426 1.504 1.493 1.5 1.8 1.5H4.2C4.508 1.5 4.574 1.503 4.617 1.514C4.70683 1.53548 4.78895 1.58143 4.85426 1.64674C4.91957 1.71205 4.96552 1.79417 4.987 1.884C4.997 1.926 5 1.992 5 2.3V4.7C5 5.008 4.997 5.074 4.986 5.117C4.96452 5.20683 4.91857 5.28895 4.85326 5.35426C4.78795 5.41957 4.70583 5.46552 4.616 5.487C4.575 5.496 4.509 5.5 4.2 5.5H1.8C1.492 5.5 1.426 5.497 1.383 5.486C1.29317 5.46452 1.21105 5.41857 1.14574 5.35326C1.08043 5.28795 1.03448 5.20583 1.013 5.116C1.004 5.075 1 5.009 1 4.7V2.3C1 1.992 1.003 1.926 1.014 1.883C1.03548 1.79317 1.08143 1.71105 1.14674 1.64574C1.21205 1.58043 1.29417 1.53448 1.384 1.513L1.383 1.514ZM8.8 0.5H8.75C8.521 0.5 8.324 0.5 8.15 0.541C7.88064 0.605365 7.63435 0.743046 7.43843 0.938789C7.24251 1.13453 7.10461 1.38069 7.04 1.65C7 1.824 7 2.02 7 2.25V4.75C7 4.979 7 5.176 7.041 5.35C7.10537 5.61936 7.24305 5.86565 7.43879 6.06157C7.63453 6.25749 7.88069 6.39539 8.15 6.46C8.324 6.5 8.52 6.5 8.75 6.5H11.25C11.479 6.5 11.676 6.5 11.85 6.459C12.1194 6.39464 12.3657 6.25695 12.5616 6.06121C12.7575 5.86547 12.8954 5.61931 12.96 5.35C13 5.176 13 4.98 13 4.75V2.25C13 2.021 13 1.824 12.959 1.65C12.8946 1.38064 12.757 1.13435 12.5612 0.938431C12.3655 0.742511 12.1193 0.604608 11.85 0.54C11.676 0.5 11.48 0.5 11.25 0.5H8.8ZM8.383 1.514C8.426 1.504 8.493 1.5 8.8 1.5H11.2C11.508 1.5 11.574 1.503 11.617 1.514C11.7068 1.53548 11.789 1.58143 11.8543 1.64674C11.9196 1.71205 11.9655 1.79417 11.987 1.884C11.997 1.926 12 1.992 12 2.3V4.7C12 5.008 11.996 5.074 11.986 5.117C11.9645 5.20683 11.9186 5.28895 11.8533 5.35426C11.788 5.41957 11.7058 5.46552 11.616 5.487C11.574 5.497 11.508 5.5 11.2 5.5H8.8C8.492 5.5 8.426 5.497 8.383 5.486C8.29317 5.46452 8.21105 5.41857 8.14574 5.35326C8.08043 5.28795 8.03448 5.20583 8.013 5.116C8.004 5.075 8 5.009 8 4.7V2.3C8 1.992 8.003 1.926 8.014 1.883C8.03548 1.79317 8.08142 1.71105 8.14674 1.64574C8.21205 1.58043 8.29417 1.53448 8.384 1.513L8.383 1.514ZM1.75 7.5H4.25C4.479 7.5 4.676 7.5 4.85 7.541C5.11936 7.60537 5.36565 7.74305 5.56157 7.93879C5.75749 8.13453 5.89539 8.38069 5.96 8.65C6 8.824 6 9.02 6 9.25V11.75C6 11.979 6 12.176 5.959 12.35C5.89464 12.6194 5.75695 12.8657 5.56121 13.0616C5.36547 13.2575 5.11931 13.3954 4.85 13.46C4.676 13.5 4.48 13.5 4.25 13.5H1.75C1.521 13.5 1.324 13.5 1.15 13.459C0.880636 13.3946 0.63435 13.257 0.438431 13.0612C0.242511 12.8655 0.104608 12.6193 0.04 12.35C-3.72529e-08 12.176 0 11.98 0 11.75V9.25C0 9.021 7.45058e-09 8.824 0.041 8.65C0.105365 8.38064 0.243046 8.13435 0.438789 7.93843C0.634532 7.74251 0.880694 7.60461 1.15 7.54C1.324 7.5 1.52 7.5 1.75 7.5ZM1.8 8.5C1.492 8.5 1.426 8.503 1.383 8.514C1.29317 8.53548 1.21105 8.58142 1.14574 8.64674C1.08043 8.71205 1.03448 8.79417 1.013 8.884C1.004 8.925 1 8.991 1 9.3V11.7C1 12.008 1.003 12.074 1.014 12.117C1.03548 12.2068 1.08143 12.289 1.14674 12.3543C1.21205 12.4196 1.29417 12.4655 1.384 12.487C1.426 12.497 1.492 12.5 1.8 12.5H4.2C4.508 12.5 4.574 12.496 4.617 12.486C4.70683 12.4645 4.78895 12.4186 4.85426 12.3533C4.91957 12.288 4.96552 12.2058 4.987 12.116C4.997 12.074 5 12.008 5 11.7V9.3C5 8.992 4.997 8.926 4.986 8.883C4.96452 8.79317 4.91857 8.71105 4.85326 8.64574C4.78795 8.58043 4.70583 8.53448 4.616 8.513C4.575 8.504 4.509 8.5 4.2 8.5H1.8ZM8.8 7.5H8.75C8.521 7.5 8.324 7.5 8.15 7.541C7.88064 7.60537 7.63435 7.74305 7.43843 7.93879C7.24251 8.13453 7.10461 8.38069 7.04 8.65C7 8.824 7 9.02 7 9.25V11.75C7 11.979 7 12.176 7.041 12.35C7.10537 12.6194 7.24305 12.8657 7.43879 13.0616C7.63453 13.2575 7.88069 13.3954 8.15 13.46C8.324 13.501 8.521 13.501 8.75 13.501H11.25C11.479 13.501 11.676 13.501 11.85 13.46C12.1192 13.3955 12.3653 13.2577 12.561 13.062C12.7567 12.8663 12.8945 12.6202 12.959 12.351C13 12.177 13 11.98 13 11.751V9.25C13 9.021 13 8.824 12.959 8.65C12.8946 8.38064 12.757 8.13435 12.5612 7.93843C12.3655 7.74251 12.1193 7.60461 11.85 7.54C11.676 7.5 11.48 7.5 11.25 7.5H8.8ZM8.383 8.514C8.426 8.504 8.493 8.5 8.8 8.5H11.2C11.508 8.5 11.574 8.503 11.617 8.514C11.7068 8.53548 11.789 8.58142 11.8543 8.64674C11.9196 8.71205 11.9655 8.79417 11.987 8.884C11.997 8.926 12 8.992 12 9.3V11.7C12 12.008 11.996 12.074 11.986 12.117C11.9645 12.2068 11.9186 12.289 11.8533 12.3543C11.788 12.4196 11.7058 12.4655 11.616 12.487C11.574 12.497 11.508 12.5 11.2 12.5H8.8C8.492 12.5 8.426 12.496 8.383 12.486C8.29317 12.4645 8.21105 12.4186 8.14574 12.3533C8.08043 12.288 8.03448 12.2058 8.013 12.116C8.004 12.075 8 12.009 8 11.7V9.3C8 8.992 8.003 8.926 8.014 8.883C8.03548 8.79317 8.08142 8.71105 8.14674 8.64574C8.21205 8.58043 8.29417 8.53448 8.384 8.513L8.383 8.514Z" fill="white"/>
</svg>
