<svg width="12" height="14" viewBox="0 0 12 14" fill="none" xmlns="http://www.w3.org/2000/svg">
<path d="M3.99967 2.33398H2.66634C2.31272 2.33398 1.97358 2.47446 1.72353 2.72451C1.47348 2.97456 1.33301 3.3137 1.33301 3.66732V11.6673C1.33301 12.0209 1.47348 12.3601 1.72353 12.6101C1.97358 12.8602 2.31272 13.0007 2.66634 13.0007H9.33301C9.68663 13.0007 10.0258 12.8602 10.2758 12.6101C10.5259 12.3601 10.6663 12.0209 10.6663 11.6673V3.66732C10.6663 3.3137 10.5259 2.97456 10.2758 2.72451C10.0258 2.47446 9.68663 2.33398 9.33301 2.33398H7.99967" stroke="white" stroke-width="0.8" stroke-linecap="round" stroke-linejoin="round"/>
<path d="M6.66667 1H5.33333C4.59695 1 4 1.59695 4 2.33333C4 3.06971 4.59695 3.66667 5.33333 3.66667H6.66667C7.40305 3.66667 8 3.06971 8 2.33333C8 1.59695 7.40305 1 6.66667 1Z" stroke="white" stroke-width="0.8" stroke-linecap="round" stroke-linejoin="round"/>
<path d="M5.99935 5.66602V6.33268M7.33268 6.33268H5.66602C5.4008 6.33268 5.14645 6.43804 4.95891 6.62558C4.77137 6.81311 4.66602 7.06747 4.66602 7.33268C4.66602 7.5979 4.77137 7.85225 4.95891 8.03979C5.14645 8.22733 5.4008 8.33268 5.66602 8.33268H6.33268C6.5979 8.33268 6.85225 8.43804 7.03979 8.62558C7.22733 8.81311 7.33268 9.06747 7.33268 9.33268C7.33268 9.5979 7.22733 9.85225 7.03979 10.0398C6.85225 10.2273 6.5979 10.3327 6.33268 10.3327H4.66602L7.33268 6.33268ZM5.99935 10.3327V10.9993V10.3327Z" stroke="white" stroke-width="0.8" stroke-linecap="round" stroke-linejoin="round"/>
</svg>
