<svg width="12" height="14" viewBox="0 0 12 14" fill="none" xmlns="http://www.w3.org/2000/svg">
<path d="M9.85933 4.23438C9.85933 2.09375 8.12496 0.359375 5.98434 0.359375C3.84372 0.359375 2.10934 2.09375 2.10934 4.23438C2.10934 5.52812 2.74372 6.675 3.71872 7.37813C3.71247 7.38125 3.70778 7.38281 3.70465 7.38437C3.00622 7.67969 2.37966 8.10313 1.84059 8.64375C1.30153 9.18281 0.879657 9.81094 0.584345 10.5109C0.295283 11.1953 0.140596 11.9219 0.124971 12.6687C0.123408 12.7391 0.179658 12.7969 0.249971 12.7969H1.18591C1.25309 12.7969 1.30934 12.7422 1.31091 12.675C1.34216 11.4688 1.82497 10.3391 2.67965 9.48281C3.56247 8.59688 4.73434 8.10938 5.98434 8.10938C8.12496 8.10938 9.85933 6.375 9.85933 4.23438ZM5.98434 6.92188C4.49997 6.92188 3.29684 5.71875 3.29684 4.23438C3.29684 2.75 4.49997 1.54688 5.98434 1.54688C7.46871 1.54688 8.67183 2.75 8.67183 4.23438C8.67183 5.71875 7.46871 6.92188 5.98434 6.92188ZM7.62496 10.375H11.75C11.8187 10.375 11.875 10.3188 11.875 10.25V9.375C11.875 9.30625 11.8187 9.25 11.75 9.25H8.99215L9.72965 8.31094C9.74683 8.28906 9.75621 8.26094 9.75621 8.23438C9.75621 8.16563 9.69996 8.10938 9.63121 8.10938H8.49683C8.42027 8.10938 8.3484 8.14531 8.29996 8.20469L7.22965 9.56563C7.1609 9.65312 7.1234 9.7625 7.1234 9.875C7.12496 10.1516 7.3484 10.375 7.62496 10.375ZM11.375 11.375H7.24996C7.18121 11.375 7.12496 11.4312 7.12496 11.5V12.375C7.12496 12.4438 7.18121 12.5 7.24996 12.5H10.0078L9.27027 13.4391C9.25308 13.4609 9.24371 13.4891 9.24371 13.5156C9.24371 13.5844 9.29996 13.6406 9.36871 13.6406H10.5031C10.5796 13.6406 10.6515 13.6047 10.7 13.5453L11.7703 12.1844C11.839 12.0969 11.8765 11.9875 11.8765 11.875C11.875 11.5984 11.6515 11.375 11.375 11.375Z" fill="white"/>
</svg>
