<svg width="26" height="25" viewBox="0 0 26 25" fill="none" xmlns="http://www.w3.org/2000/svg">
<path d="M25.5562 0H0.533691V7.8H1.78482V22.1C1.78482 22.7896 2.04845 23.4509 2.51771 23.9385C2.98698 24.4261 3.62344 24.7 4.28708 24.7H21.8029C22.4665 24.7 23.103 24.4261 23.5722 23.9385C24.0415 23.4509 24.3051 22.7896 24.3051 22.1V7.8H25.5562V0ZM3.03595 2.6H23.054V5.2H3.03595V2.6ZM21.8029 22.1H4.28708V7.8H21.8029V22.1ZM9.29159 10.4H16.7984C16.7984 11.0896 16.5347 11.7509 16.0655 12.2385C15.5962 12.7261 14.9597 13 14.2961 13H11.7938C11.1302 13 10.4937 12.7261 10.0245 12.2385C9.55522 11.7509 9.29159 11.0896 9.29159 10.4Z" fill="white"/>
</svg>
