<svg width="25" height="24" viewBox="0 0 25 24" fill="none" xmlns="http://www.w3.org/2000/svg">
<path d="M25 0H0V7.5H1.25V21.25C1.25 21.913 1.51339 22.5489 1.98223 23.0178C2.45107 23.4866 3.08696 23.75 3.75 23.75H21.25C21.913 23.75 22.5489 23.4866 23.0178 23.0178C23.4866 22.5489 23.75 21.913 23.75 21.25V7.5H25V0ZM2.5 2.5H22.5V5H2.5V2.5ZM21.25 21.25H3.75V7.5H21.25V21.25ZM13.75 8.75V15.2125L16.9875 11.9875L18.75 13.75L12.5 20L6.25 13.75L8.0125 11.975L11.25 15.2125V8.75H13.75Z" fill="white"/>
</svg>
