<svg width="30" height="25" viewBox="0 0 30 25" fill="none" xmlns="http://www.w3.org/2000/svg">
<path d="M29.9785 4.2254C29.9785 5.246 29.573 6.22481 28.8514 6.94649C28.1297 7.66816 27.1509 8.0736 26.1303 8.0736H24.2062V6.1495H26.1303C26.6406 6.1495 27.13 5.94678 27.4908 5.58594C27.8517 5.2251 28.0544 4.7357 28.0544 4.2254C28.0544 3.71509 27.8517 3.22569 27.4908 2.86485C27.13 2.50401 26.6406 2.3013 26.1303 2.3013H24.2062V0.377197H26.1303C27.1509 0.377197 28.1297 0.782632 28.8514 1.50431C29.573 2.22599 29.9785 3.20479 29.9785 4.2254ZM16.5098 4.2254C16.5098 3.20479 16.9152 2.22599 17.6369 1.50431C18.3586 0.782632 19.3374 0.377197 20.358 0.377197H22.2821V2.3013H20.358C19.8477 2.3013 19.3583 2.50401 18.9974 2.86485C18.6366 3.22569 18.4339 3.71509 18.4339 4.2254C18.4339 4.7357 18.6366 5.2251 18.9974 5.58594C19.3583 5.94678 19.8477 6.1495 20.358 6.1495H22.2821V8.0736H20.358C19.3374 8.0736 18.3586 7.66816 17.6369 6.94649C16.9152 6.22481 16.5098 5.246 16.5098 4.2254Z" fill="white"/>
<line x1="21.2324" y1="3.6001" x2="24.9057" y2="3.6001" stroke="white" stroke-width="3"/>
<path fill-rule="evenodd" clip-rule="evenodd" d="M24.2682 16.6048C24.9486 14.6565 25.1379 12.5704 24.8194 10.5314C24.7597 10.1668 24.5583 9.84056 24.2591 9.62376C23.9599 9.40697 23.5872 9.31717 23.2221 9.37394C23.0424 9.40207 22.87 9.46552 22.715 9.56062C22.5599 9.65571 22.4252 9.78058 22.3187 9.92801C22.2122 10.0754 22.1359 10.2425 22.0943 10.4196C22.0526 10.5967 22.0465 10.7802 22.0762 10.9597C22.155 11.469 22.1937 11.9837 22.1919 12.4991C22.1925 14.6807 21.454 16.7982 20.0969 18.5064C19.1982 17.365 18.0552 16.4395 16.7519 15.7979C17.586 14.9532 18.1518 13.8806 18.3779 12.7151C18.604 11.5497 18.4804 10.3434 18.0226 9.248C17.5649 8.15261 16.7934 7.21706 15.8052 6.55905C14.8171 5.90104 13.6564 5.54994 12.4692 5.54994C11.282 5.54994 10.1214 5.90104 9.13321 6.55905C8.14507 7.21706 7.37359 8.15261 6.91582 9.248C6.45806 10.3434 6.33446 11.5497 6.56058 12.7151C6.78669 13.8806 7.35242 14.9532 8.1866 15.7979C6.88323 16.4395 5.7402 17.365 4.84152 18.5064C3.71063 17.0744 3.00604 15.3529 2.80849 13.5389C2.61093 11.725 2.92842 9.89214 3.72455 8.25034C4.52068 6.60854 5.76326 5.22425 7.30988 4.2561C8.85649 3.28796 10.6446 2.77513 12.4692 2.77638C12.9846 2.77463 13.4993 2.81333 14.0087 2.89213C14.1881 2.92183 14.3717 2.91569 14.5487 2.87407C14.7258 2.83245 14.8929 2.75617 15.0403 2.64963C15.1877 2.5431 15.3126 2.40841 15.4077 2.25336C15.5028 2.0983 15.5663 1.92595 15.5944 1.74624C15.6512 1.38115 15.5614 1.00842 15.3446 0.709243C15.1278 0.410063 14.8015 0.20867 14.4369 0.148934C11.7873 -0.26356 9.07517 0.186118 6.70042 1.43168C4.32568 2.67725 2.41392 4.6528 1.24695 7.06714C0.0799732 9.48148 -0.280471 12.2069 0.218744 14.8416C0.717959 17.4763 2.05042 19.8809 4.01972 21.701C4.07573 21.7647 4.13775 21.8228 4.20491 21.8746C6.48683 23.8886 9.42565 25 12.4692 25C15.5128 25 18.4516 23.8886 20.7335 21.8746C20.8007 21.8228 20.8627 21.7647 20.9187 21.701C22.4373 20.3036 23.5878 18.5531 24.2682 16.6048ZM14.2698 14.2678C13.7368 14.624 13.1102 14.814 12.4692 14.814C11.6106 14.811 10.7881 14.4686 10.1809 13.8614C9.5738 13.2543 9.23137 12.4317 9.22832 11.5731C9.22832 10.9321 9.41839 10.3055 9.77451 9.77258C10.1306 9.23961 10.6368 8.82422 11.229 8.57892C11.8212 8.33362 12.4728 8.26944 13.1015 8.3945C13.7302 8.51955 14.3076 8.82821 14.7609 9.28146C15.2141 9.73471 15.5228 10.3122 15.6479 10.9409C15.7729 11.5695 15.7087 12.2212 15.4634 12.8134C15.2181 13.4056 14.8027 13.9117 14.2698 14.2678ZM18.0714 20.4393C16.4344 21.6008 14.4764 22.2238 12.4692 22.2218C10.4621 22.2238 8.50407 21.6008 6.86709 20.4393C7.51053 19.5569 8.35335 18.8389 9.32688 18.3439C10.3004 17.8489 11.3771 17.5909 12.4692 17.5909C13.5614 17.5909 14.6381 17.8489 15.6116 18.3439C16.5851 18.8389 17.4279 19.5569 18.0714 20.4393Z" fill="white"/>
</svg>
