<svg width="25" height="26" viewBox="0 0 25 26" fill="none" xmlns="http://www.w3.org/2000/svg">
<path d="M25 12.5107C25.0018 10.4318 24.485 8.38526 23.4965 6.55639C22.508 4.72751 21.079 3.17406 19.3388 2.03668C17.5986 0.899293 15.6022 0.213896 13.5303 0.0425383C11.4585 -0.128819 9.3766 0.219275 7.47319 1.0553C5.56977 1.89133 3.90493 3.1889 2.62939 4.83052C1.35385 6.47214 0.507884 8.40598 0.168095 10.4569C-0.171694 12.5079 0.00542027 14.6112 0.683401 16.5765C1.36138 18.5418 2.51882 20.3069 4.05092 21.7121C4.10693 21.7758 4.16894 21.8339 4.23611 21.8857C6.5179 23.8996 9.45658 25.011 12.5 25.011C15.5434 25.011 18.4821 23.8996 20.7639 21.8857C20.831 21.8339 20.8931 21.7758 20.9491 21.7121C22.2261 20.5437 23.2459 19.1221 23.9433 17.5379C24.6408 15.9537 25.0006 14.2417 25 12.5107ZM2.77778 12.5107C2.7743 10.9589 3.14236 9.42876 3.85118 8.04825C4.56 6.66775 5.58898 5.47697 6.85212 4.57547C8.11526 3.67397 9.57585 3.08794 11.1118 2.86636C12.6477 2.64478 14.2144 2.7941 15.6808 3.30182C17.1473 3.80955 18.4709 4.66093 19.541 5.78481C20.6111 6.90868 21.3966 8.27239 21.8319 9.76194C22.2672 11.2515 22.3396 12.8236 22.043 14.3468C21.7465 15.8701 21.0896 17.3002 20.1273 18.5177C19.2287 17.3763 18.0857 16.4509 16.7824 15.8093C17.6165 14.9647 18.1822 13.8921 18.4083 12.7268C18.6344 11.5614 18.5109 10.3551 18.0531 9.25979C17.5954 8.16446 16.8239 7.22896 15.8358 6.57098C14.8477 5.913 13.6871 5.56193 12.5 5.56193C11.3129 5.56193 10.1523 5.913 9.16416 6.57098C8.17606 7.22896 7.40462 8.16446 6.94688 9.25979C6.48914 10.3551 6.36555 11.5614 6.59165 12.7268C6.81776 13.8921 7.38346 14.9647 8.21759 15.8093C6.91429 16.4509 5.77132 17.3763 4.87268 18.5177C3.51566 16.8096 2.77724 14.6922 2.77778 12.5107ZM9.25926 11.5848C9.25926 10.9438 9.44932 10.3173 9.80542 9.78434C10.1615 9.25141 10.6677 8.83603 11.2598 8.59075C11.852 8.34546 12.5036 8.28129 13.1322 8.40633C13.7609 8.53138 14.3383 8.84003 14.7915 9.29325C15.2448 9.74648 15.5534 10.3239 15.6785 10.9526C15.8035 11.5812 15.7393 12.2328 15.4941 12.825C15.2488 13.4171 14.8334 13.9233 14.3005 14.2794C13.7675 14.6355 13.141 14.8255 12.5 14.8255C11.6414 14.8225 10.8189 14.4801 10.2118 13.873C9.60472 13.2659 9.26231 12.4434 9.25926 11.5848ZM6.89814 20.4505C7.54156 19.5681 8.38433 18.8502 9.35781 18.3552C10.3313 17.8603 11.4079 17.6023 12.5 17.6023C13.5921 17.6023 14.6687 17.8603 15.6422 18.3552C16.6157 18.8502 17.4584 19.5681 18.1018 20.4505C16.4638 21.6095 14.5066 22.2318 12.5 22.2318C10.4934 22.2318 8.53621 21.6095 6.89814 20.4505Z" fill="white"/>
</svg>
