<svg width="25" height="23" viewBox="0 0 25 23" fill="none" xmlns="http://www.w3.org/2000/svg">
<path d="M0 8.125V1.25C0 0.918479 0.131696 0.600537 0.366116 0.366116C0.600537 0.131696 0.918479 0 1.25 0H23.75C24.0815 0 24.3995 0.131696 24.6339 0.366116C24.8683 0.600537 25 0.918479 25 1.25V8.125C24.1712 8.125 23.3763 8.45424 22.7903 9.04029C22.2042 9.62634 21.875 10.4212 21.875 11.25C21.875 12.0788 22.2042 12.8737 22.7903 13.4597C23.3763 14.0458 24.1712 14.375 25 14.375V21.25C25 21.5815 24.8683 21.8995 24.6339 22.1339C24.3995 22.3683 24.0815 22.5 23.75 22.5H1.25C0.918479 22.5 0.600537 22.3683 0.366116 22.1339C0.131696 21.8995 0 21.5815 0 21.25V14.375C0.828802 14.375 1.62366 14.0458 2.20971 13.4597C2.79576 12.8737 3.125 12.0788 3.125 11.25C3.125 10.4212 2.79576 9.62634 2.20971 9.04029C1.62366 8.45424 0.828802 8.125 0 8.125ZM15 2.5H2.5V6.21C3.43901 6.67537 4.22934 7.39381 4.78188 8.28432C5.33442 9.17483 5.6272 10.202 5.6272 11.25C5.6272 12.298 5.33442 13.3252 4.78188 14.2157C4.22934 15.1062 3.43901 15.8246 2.5 16.29V20H15V2.5ZM17.5 2.5V20H22.5V16.29C21.561 15.8246 20.7707 15.1062 20.2181 14.2157C19.6656 13.3252 19.3728 12.298 19.3728 11.25C19.3728 10.202 19.6656 9.17483 20.2181 8.28432C20.7707 7.39381 21.561 6.67537 22.5 6.21V2.5H17.5Z" fill="white"/>
</svg>
