<svg width="170" height="68" viewBox="0 0 170 68" fill="none" xmlns="http://www.w3.org/2000/svg">
<path d="M21.1406 50.816L19.3423 45.9685H7.72163L6.02516 50.816H0L9.90189 23.8857H16.8151L26.7965 50.816H21.1406ZM9.53586 41.0064H17.4994L13.419 30.0064L9.53586 41.0064Z" fill="white"/>
<path d="M51.6548 50.816H45.2286L35.123 38.2023V50.816H29.5435V23.8889H35.1198V35.7546L44.8212 23.8889H51.2474L40.779 36.9673L51.6548 50.816Z" fill="white"/>
<path d="M75.7842 47.2958C72.9291 50.0012 69.4503 51.3539 65.3571 51.3539C61.2607 51.3539 57.7914 50.0012 54.9491 47.2958C52.1068 44.5903 50.6841 41.2738 50.6841 37.3525C50.6841 33.4312 52.1036 30.1147 54.9491 27.4092C57.7914 24.7038 61.2607 23.3511 65.3571 23.3511C69.4534 23.3511 72.9291 24.7038 75.7842 27.4092C78.6392 30.1147 80.0683 33.4312 80.0683 37.3525C80.0683 41.2738 78.6392 44.5903 75.7842 47.2958ZM58.8481 43.68C60.5987 45.3351 62.7694 46.1627 65.3571 46.1627C67.9448 46.1627 70.1123 45.3351 71.866 43.68C73.6166 42.0249 74.4919 39.9179 74.4919 37.3525C74.4919 34.7871 73.6166 32.6737 71.866 31.0059C70.1155 29.338 67.9448 28.5041 65.3571 28.5041C62.7694 28.5041 60.6019 29.338 58.8481 31.0059C57.0976 32.6737 56.2223 34.7903 56.2223 37.3525C56.2223 39.9179 57.0976 42.0281 58.8481 43.68Z" fill="white"/>
<path d="M106.098 31.0439C108.415 31.0439 110.267 31.7633 111.655 33.1987C113.043 34.6342 113.737 36.5599 113.737 38.9693V50.8191H108.523V39.3162C108.523 38.1608 108.227 37.2633 107.635 36.6235C107.043 35.9838 106.206 35.6623 105.13 35.6623C103.943 35.6623 103.02 36.0347 102.361 36.7763C101.699 37.5211 101.371 38.5969 101.371 40.0069V50.8159H96.1544V39.313C96.1544 38.1576 95.8584 37.2601 95.2663 36.6203C94.6743 35.9806 93.8372 35.6591 92.7614 35.6591C91.6029 35.6591 90.6798 36.0315 89.9923 36.7731C89.3048 37.5179 88.9611 38.5937 88.9611 40.0037V50.8127H83.7476V31.5819H88.9611V33.6221C90.1738 31.9033 92.0453 31.0439 94.5788 31.0439C97.0583 31.0439 98.8885 31.967 100.076 33.813C101.422 31.967 103.43 31.0439 106.098 31.0439Z" fill="white"/>
<path d="M133.544 31.5819H138.757V50.8159H133.544V48.5465C131.981 50.4181 129.785 51.3538 126.955 51.3538C124.259 51.3538 121.948 50.3735 120.023 48.4097C118.097 46.449 117.133 44.0428 117.133 41.1973C117.133 38.3518 118.097 35.9456 120.023 33.9849C121.948 32.0243 124.259 31.0408 126.955 31.0408C129.785 31.0408 131.981 31.9765 133.544 33.8481V31.5819ZM123.925 45.1059C124.975 46.118 126.309 46.6241 127.926 46.6241C129.543 46.6241 130.883 46.118 131.949 45.1059C133.012 44.0937 133.547 42.7919 133.547 41.2005C133.547 39.609 133.015 38.3104 131.949 37.2951C130.883 36.283 129.543 35.7769 127.926 35.7769C126.309 35.7769 124.975 36.283 123.925 37.2951C122.875 38.3073 122.35 39.609 122.35 41.2005C122.346 42.7887 122.872 44.0905 123.925 45.1059Z" fill="white"/>
<path d="M148.7 34.8921C149.184 33.6603 149.986 32.7373 151.107 32.123C152.224 31.5087 153.471 31.2 154.846 31.2V36.7381C153.255 36.5599 151.835 36.8655 150.581 37.6612C149.327 38.4569 148.7 39.7778 148.7 41.6238V50.8191H143.487V31.5819H148.7V34.8921Z" fill="white"/>
<path d="M170 36.3531H165.432V44.3548C165.432 45.0232 165.607 45.5102 165.957 45.8157C166.308 46.1245 166.82 46.2963 167.495 46.3345C168.17 46.3727 169.003 46.3664 170 46.3154V50.816C166.416 51.2011 163.889 50.8797 162.421 49.8548C160.951 48.8299 160.219 46.9966 160.219 44.3548V36.3531H156.702V31.5819H160.219V27.6957L165.432 26.1965V31.5819H170V36.3531Z" fill="white"/>
<path d="M95.4111 19.8482C101.423 13.8359 104.291 6.95584 101.816 4.48108C99.3415 2.00631 92.4614 4.87403 86.4492 10.8863C80.4369 16.8986 77.5692 23.7787 80.0439 26.2534C82.5187 28.7282 89.3988 25.8605 95.4111 19.8482Z" fill="#35BA4D"/>
<path d="M75.6122 22.2339C78.103 22.2339 80.1223 17.3275 80.1223 11.2753C80.1223 5.22299 78.103 0.31665 75.6122 0.31665C73.1213 0.31665 71.1021 5.22299 71.1021 11.2753C71.1021 17.3275 73.1213 22.2339 75.6122 22.2339Z" fill="#DDDD3A"/>
<path d="M33.1558 59.5244H34.0501V65.0021H37.4367V65.7787H33.1558V59.5244Z" fill="white"/>
<path d="M42.5995 63.6939H38.7578C38.866 64.5247 39.5344 65.0785 40.4734 65.0785C41.0272 65.0785 41.4919 64.8907 41.8388 64.5056L42.3131 65.0594C41.8834 65.5591 41.2309 65.8265 40.4447 65.8265C38.917 65.8265 37.8984 64.8175 37.8984 63.4043C37.8984 62.0007 38.9074 60.9917 40.276 60.9917C41.6415 60.9917 42.6154 61.9752 42.6154 63.4298C42.6186 63.5093 42.6091 63.6144 42.5995 63.6939ZM38.7578 63.0797H41.7943C41.7051 62.2839 41.1068 61.7206 40.276 61.7206C39.4549 61.7206 38.8469 62.2744 38.7578 63.0797Z" fill="white"/>
<path d="M48.7105 63.4105C48.7105 64.8587 47.7015 65.8327 46.3169 65.8327C45.6199 65.8327 45.012 65.5653 44.6268 65.0274V65.7786H43.8057V59.1487H44.6619V61.7586C45.0565 61.2494 45.6454 60.9979 46.3138 60.9979C47.7015 60.9979 48.7105 61.9623 48.7105 63.4105ZM47.8447 63.4105C47.8447 62.4016 47.1572 61.7491 46.2469 61.7491C45.3462 61.7491 44.6555 62.4016 44.6555 63.4105C44.6555 64.4195 45.343 65.0815 46.2469 65.0815C47.1572 65.0815 47.8447 64.4195 47.8447 63.4105Z" fill="white"/>
<path d="M49.748 59.5753C49.748 59.2634 49.9995 59.012 50.3273 59.012C50.6583 59.012 50.9066 59.2539 50.9066 59.5562C50.9066 59.8777 50.6647 60.1291 50.3273 60.1291C49.9963 60.1291 49.748 59.8904 49.748 59.5753ZM49.8976 61.0426H50.7538V65.7787H49.8976V61.0426Z" fill="white"/>
<path d="M56.8841 63.0509V65.7754H56.0279V63.1496C56.0279 62.2202 55.5632 61.765 54.7516 61.765C53.8413 61.765 53.2493 62.3093 53.2493 63.3373V65.7754H52.3931V59.1455H53.2493V61.7109C53.6057 61.2557 54.1978 60.9948 54.9203 60.9948C56.0725 60.9979 56.8841 61.6568 56.8841 63.0509Z" fill="white"/>
<path d="M65.3477 59.1487V65.7786H64.5265V65.0274C64.1414 65.5622 63.5334 65.8327 62.8364 65.8327C61.4518 65.8327 60.4429 64.8587 60.4429 63.4105C60.4429 61.9623 61.4518 60.9979 62.8364 60.9979C63.508 60.9979 64.0968 61.2494 64.4883 61.7586V59.1487H65.3477ZM64.4978 63.4105C64.4978 62.4016 63.8103 61.7491 62.9064 61.7491C61.9961 61.7491 61.3086 62.4016 61.3086 63.4105C61.3086 64.4195 61.9961 65.0815 62.9064 65.0815C63.8103 65.0815 64.4978 64.4195 64.4978 63.4105Z" fill="white"/>
<path d="M71.2358 63.6939H67.394C67.5023 64.5247 68.1707 65.0785 69.1096 65.0785C69.6634 65.0785 70.1281 64.8907 70.4751 64.5056L70.9493 65.0594C70.5196 65.5591 69.8671 65.8265 69.081 65.8265C67.5532 65.8265 66.5347 64.8175 66.5347 63.4043C66.5347 62.0007 67.5436 60.9917 68.9123 60.9917C70.2777 60.9917 71.2517 61.9752 71.2517 63.4298C71.2517 63.5093 71.2421 63.6144 71.2358 63.6939ZM67.394 63.0797H70.4305C70.3414 62.2839 69.743 61.7206 68.9123 61.7206C68.0911 61.7206 67.4832 62.2744 67.394 63.0797Z" fill="white"/>
<path d="M74.2816 63.5697L73.2981 64.48V65.7754H72.4419V59.1455H73.2981V63.3978L75.8794 61.0393H76.917L74.9245 62.9968L77.1143 65.7754H76.0608L74.2816 63.5697Z" fill="white"/>
<path d="M81.6975 62.9173V65.7755H80.8858V65.1517C80.5994 65.5814 80.0742 65.8296 79.3326 65.8296C78.26 65.8296 77.582 65.2567 77.582 64.4355C77.582 63.6748 78.0722 63.051 79.4854 63.051H80.8445V62.8823C80.8445 62.1598 80.4243 61.7397 79.5745 61.7397C79.0111 61.7397 78.4382 61.937 78.0722 62.2489L77.7157 61.606C78.2059 61.2113 78.9125 60.998 79.6732 60.998C80.9654 60.998 81.6975 61.6219 81.6975 62.9173ZM80.8381 64.3305V63.6685H79.5172C78.6674 63.6685 78.4287 63.9995 78.4287 64.4005C78.4287 64.8748 78.8233 65.1676 79.4727 65.1676C80.1156 65.1708 80.6248 64.8748 80.8381 64.3305Z" fill="white"/>
<path d="M85.9502 65.5017C85.6924 65.7245 85.2977 65.8327 84.9126 65.8327C83.9577 65.8327 83.4102 65.3044 83.4102 64.3495V61.7491H82.605V61.0425H83.4102V60.0049H84.2696V61.0425H85.6287V61.7491H84.2696V64.3145C84.2696 64.8237 84.537 65.1102 85.0112 65.1102C85.2627 65.1102 85.5014 65.0306 85.6828 64.8874L85.9502 65.5017Z" fill="white"/>
<path d="M89.3906 59.1487H90.2468V65.7786H89.3906V59.1487Z" fill="white"/>
<path d="M96.1449 63.6939H92.3032C92.4114 64.5247 93.0798 65.0785 94.0188 65.0785C94.5726 65.0785 95.0373 64.8907 95.3842 64.5056L95.8585 65.0594C95.4288 65.5591 94.7763 65.8265 93.9901 65.8265C92.4624 65.8265 91.4438 64.8175 91.4438 63.4043C91.4438 62.0007 92.4528 60.9917 93.8214 60.9917C95.1869 60.9917 96.1609 61.9752 96.1609 63.4298C96.1609 63.5093 96.1545 63.6144 96.1449 63.6939ZM92.3032 63.0797H95.3397C95.2506 62.2839 94.6522 61.7206 93.8214 61.7206C93.0003 61.7206 92.3923 62.2744 92.3032 63.0797Z" fill="white"/>
<path d="M102.256 63.4105C102.256 64.8587 101.247 65.8327 99.8624 65.8327C99.1653 65.8327 98.5574 65.5653 98.1723 65.0274V65.7786H97.3511V59.1487H98.2073V61.7586C98.6019 61.2494 99.1908 60.9979 99.8592 60.9979C101.247 60.9979 102.256 61.9623 102.256 63.4105ZM101.39 63.4105C101.39 62.4016 100.703 61.7491 99.7923 61.7491C98.8916 61.7491 98.2009 62.4016 98.2009 63.4105C98.2009 64.4195 98.8884 65.0815 99.7923 65.0815C100.699 65.0815 101.39 64.4195 101.39 63.4105Z" fill="white"/>
<path d="M103.29 59.5753C103.29 59.2634 103.541 59.012 103.869 59.012C104.2 59.012 104.449 59.2539 104.449 59.5562C104.449 59.8777 104.207 60.1291 103.869 60.1291C103.541 60.1291 103.29 59.8904 103.29 59.5753ZM103.443 61.0426H104.299V65.7787H103.443V61.0426Z" fill="white"/>
<path d="M110.43 63.0509V65.7754H109.573V63.1496C109.573 62.2202 109.109 61.765 108.297 61.765C107.387 61.765 106.795 62.3093 106.795 63.3373V65.7754H105.938V59.1455H106.795V61.7109C107.151 61.2557 107.743 60.9948 108.466 60.9948C109.618 60.9979 110.43 61.6568 110.43 63.0509Z" fill="white"/>
<path d="M113.988 63.4107C113.988 62.0007 115.032 60.998 116.49 60.998C117.339 60.998 118.043 61.345 118.418 62.007L117.766 62.4272C117.463 61.9625 116.999 61.7492 116.48 61.7492C115.551 61.7492 114.854 62.4017 114.854 63.4107C114.854 64.4387 115.551 65.0817 116.48 65.0817C116.999 65.0817 117.463 64.8684 117.766 64.4037L118.418 64.8143C118.043 65.4763 117.336 65.8328 116.49 65.8328C115.032 65.8296 113.988 64.8207 113.988 63.4107Z" fill="white"/>
<path d="M123.788 63.6939H119.946C120.055 64.5247 120.723 65.0785 121.662 65.0785C122.216 65.0785 122.68 64.8907 123.027 64.5056L123.502 65.0594C123.072 65.5591 122.419 65.8265 121.633 65.8265C120.105 65.8265 119.087 64.8175 119.087 63.4043C119.087 62.0007 120.096 60.9917 121.465 60.9917C122.83 60.9917 123.804 61.9752 123.804 63.4298C123.807 63.5093 123.798 63.6144 123.788 63.6939ZM119.946 63.0797H122.983C122.894 62.2839 122.295 61.7206 121.465 61.7206C120.643 61.7206 120.035 62.2744 119.946 63.0797Z" fill="white"/>
<path d="M129.899 63.4107C129.899 64.8684 128.89 65.8328 127.506 65.8328C126.834 65.8328 126.245 65.575 125.854 65.0657V67.5134H124.998V61.0458H125.819V61.7969C126.204 61.2686 126.812 61.0012 127.509 61.0012C128.89 60.998 129.899 61.9625 129.899 63.4107ZM129.033 63.4107C129.033 62.4112 128.346 61.7492 127.436 61.7492C126.535 61.7492 125.844 62.4112 125.844 63.4107C125.844 64.4196 126.532 65.0817 127.436 65.0817C128.346 65.0817 129.033 64.4196 129.033 63.4107Z" fill="white"/>
<path d="M134.839 62.9173V65.7755H134.027V65.1517C133.741 65.5814 133.215 65.8296 132.474 65.8296C131.401 65.8296 130.723 65.2567 130.723 64.4355C130.723 63.6748 131.213 63.051 132.627 63.051H133.986V62.8823C133.986 62.1598 133.565 61.7397 132.716 61.7397C132.152 61.7397 131.579 61.937 131.213 62.2489L130.857 61.606C131.347 61.2113 132.054 60.998 132.814 60.998C134.107 60.998 134.839 61.6219 134.839 62.9173ZM133.982 64.3305V63.6685H132.662C131.812 63.6685 131.573 63.9995 131.573 64.4005C131.573 64.8748 131.968 65.1676 132.617 65.1676C133.257 65.1708 133.769 64.8748 133.982 64.3305Z" fill="white"/>
<path d="M139.094 65.5017C138.836 65.7245 138.442 65.8327 138.057 65.8327C137.102 65.8327 136.554 65.3044 136.554 64.3495V61.7491H135.749V61.0425H136.554V60.0049H137.414V61.0425H138.773V61.7491H137.414V64.3145C137.414 64.8237 137.681 65.1102 138.155 65.1102C138.407 65.1102 138.645 65.0306 138.827 64.8874L139.094 65.5017Z" fill="white"/>
</svg>
