<svg width="280" height="90" viewBox="0 0 280 90" fill="none" xmlns="http://www.w3.org/2000/svg">
<path d="M124.01 69.8339C122.744 69.8339 122.012 69.2727 122.012 68.2889V57.5919H130.729V58.2847C130.729 59.2893 130.217 59.7465 129.124 59.7465H124.802V62.5871H129.331V63.2799C129.331 64.2359 128.805 64.7278 127.759 64.7278H124.802V67.6377H129.464C130.35 67.6377 130.869 68.0811 130.869 68.8639V69.82L124.01 69.8339Z" fill="white"/>
<path d="M132.554 57.5915H134.419C134.838 57.5445 135.26 57.6314 135.63 57.8405C136 58.0497 136.3 58.3713 136.49 58.7624L138.868 63.2865C139.382 64.2299 139.838 65.2065 140.233 66.2101C140.122 65.3139 140.059 64.4118 140.047 63.5082V57.7093C140.346 57.5602 140.674 57.4843 141.006 57.4876C142.131 57.4876 142.717 58.035 142.717 59.0326V69.8474H139.587L136.324 63.7229C135.824 62.7888 135.379 61.824 134.992 60.8339C135.14 61.7846 135.213 62.7461 135.212 63.7091V69.7435C134.914 69.8968 134.585 69.9729 134.253 69.9652C133.14 69.9652 132.541 69.4178 132.541 68.4202L132.554 57.5915Z" fill="white"/>
<path d="M144.115 57.5919H152.473C153.465 57.5919 154.032 58.1184 154.032 59.0537V59.7535H150.442V69.7299C150.089 69.8805 149.711 69.9559 149.33 69.9517C148.271 69.9517 147.705 69.4043 147.705 68.4067V59.7535H145.674C144.681 59.7535 144.115 59.2269 144.115 58.2916V57.5919Z" fill="white"/>
<path d="M157.389 69.8339C156.123 69.8339 155.391 69.2727 155.391 68.2889V57.5919H164.108V58.2847C164.108 59.2893 163.595 59.7465 162.503 59.7465H158.128V62.5871H162.656V63.2799C162.656 64.2359 162.124 64.7278 161.085 64.7278H158.128V67.6377H162.79C163.682 67.6377 164.195 68.0811 164.195 68.8639V69.82L157.389 69.8339Z" fill="white"/>
<path d="M165.939 68.4067V57.5919H171.121C173.785 57.5919 175.243 58.9359 175.243 61.3331C175.247 62.1026 175.008 62.8522 174.563 63.4668C174.118 64.0814 173.491 64.5269 172.779 64.7348L175.05 69.3073C174.604 69.7228 174.024 69.948 173.425 69.9378C173.048 69.9846 172.667 69.8884 172.353 69.667C172.039 69.4456 171.812 69.1138 171.713 68.7323L170.348 65.1643H168.677V69.7369C168.321 69.8764 167.944 69.9468 167.564 69.9447C166.506 69.9447 165.939 69.3974 165.939 68.4136V68.4067ZM168.677 63.0374H170.675C171.833 63.0374 172.486 62.4624 172.486 61.4024C172.486 60.3424 171.82 59.7535 170.675 59.7535H168.677V63.0374Z" fill="white"/>
<path d="M177.047 68.4067V57.5919H182.022C184.586 57.5919 186.144 59.0745 186.144 61.5063C186.144 63.938 184.606 65.3999 182.022 65.3999H179.784V69.7369C179.432 69.8891 179.053 69.9645 178.672 69.9586C177.613 69.9586 177.047 69.4182 177.047 68.4136V68.4067ZM179.784 63.2452H181.782C182.005 63.2607 182.229 63.2252 182.437 63.1413C182.645 63.0573 182.834 62.9269 182.989 62.7592C183.143 62.5915 183.261 62.3906 183.333 62.1706C183.406 61.9505 183.431 61.7167 183.407 61.4855C183.407 60.377 182.741 59.7535 181.595 59.7535H179.784V63.2452Z" fill="white"/>
<path d="M187.85 68.4067V57.5919H193.032C195.696 57.5919 197.147 58.9359 197.147 61.3331C197.152 62.1026 196.913 62.8522 196.468 63.4668C196.022 64.0814 195.395 64.5269 194.683 64.7348L196.954 69.3073C196.508 69.7228 195.928 69.948 195.329 69.9378C194.952 69.9846 194.572 69.8884 194.257 69.667C193.943 69.4456 193.716 69.1138 193.618 68.7323L192.252 65.1643H190.581V69.7369C190.226 69.8764 189.849 69.9468 189.469 69.9447C188.41 69.9447 187.844 69.3974 187.844 68.4136L187.85 68.4067ZM190.581 63.0374H192.579C193.738 63.0374 194.39 62.4624 194.39 61.4024C194.39 60.3424 193.724 59.7535 192.579 59.7535H190.581V63.0374Z" fill="white"/>
<path d="M198.967 57.7094C199.32 57.5589 199.698 57.4835 200.079 57.4877C201.138 57.4877 201.704 58.0281 201.704 59.0327V69.7297C201.351 69.8802 200.973 69.9556 200.592 69.9514C199.533 69.9514 198.967 69.4041 198.967 68.4064V57.7094Z" fill="white"/>
<path d="M205.1 66.245C205.373 66.7955 205.796 67.2505 206.316 67.5535C206.835 67.8564 207.429 67.994 208.023 67.9493C209.422 67.9493 210.128 67.402 210.128 66.4528C210.128 65.2265 209.069 65.0672 207.717 64.7346C204.933 64.1042 203.974 62.7948 203.974 60.9796C203.974 58.7834 205.786 57.4255 208.523 57.4255C210.987 57.4255 212.625 58.4993 212.625 59.9057C212.625 60.5154 212.146 60.9934 211.24 61.1805C210.9 60.0443 209.682 59.4623 208.523 59.4623C207.364 59.4623 206.745 60.0374 206.745 60.751C206.745 61.707 207.291 62.0119 209.342 62.4691C212.365 63.162 212.932 64.5476 212.932 66.2103C212.932 68.4897 210.934 70 208.023 70C205.359 70 203.701 68.9123 203.701 67.4989C203.701 66.8893 204.181 66.4251 205.1 66.238" fill="white"/>
<path d="M216.859 69.8339C215.594 69.8339 214.861 69.2727 214.861 68.2889V57.5919H223.579V58.2847C223.579 59.2893 223.066 59.7465 221.974 59.7465H217.598V62.5871H222.127V63.2799C222.127 64.2359 221.594 64.7278 220.555 64.7278H217.598V67.6377H222.26C223.146 67.6377 223.665 68.0811 223.665 68.8639V69.82L216.859 69.8339Z" fill="white"/>
<path d="M132.634 28.2928C126.64 28.2928 122.305 32.7615 122.305 38.9206C122.305 45.0797 126.647 49.5483 132.634 49.5483C138.621 49.5483 142.963 45.0797 142.963 38.9206C142.963 32.7615 138.621 28.2928 132.634 28.2928ZM132.634 44.7887C129.604 44.7887 127.573 42.4331 127.573 38.9206C127.573 35.408 129.61 33.0525 132.634 33.0525C135.657 33.0525 137.695 35.4149 137.695 38.9206C137.695 42.4262 135.657 44.7887 132.634 44.7887Z" fill="white"/>
<path d="M113.873 39.0385C113.843 39.0315 113.817 39.0143 113.798 38.9898C113.779 38.9652 113.769 38.9348 113.769 38.9034C113.769 38.872 113.779 38.8415 113.798 38.817C113.817 38.7924 113.843 38.7753 113.873 38.7683C114.929 38.4475 115.861 37.788 116.536 36.8838L123.023 28.6186H117.029L109.783 37.8676V20H104.516V49.2228H109.783V39.7729L116.024 47.3938C116.487 48.0046 117.082 48.4922 117.762 48.8162C118.442 49.1403 119.186 49.2915 119.933 49.2575H123.749L116.643 40.7151C115.925 39.8637 114.955 39.2858 113.886 39.0731" fill="white"/>
<path d="M168.691 28.2927C167.427 28.2602 166.176 28.5724 165.064 29.1983C163.952 29.8243 163.016 30.7421 162.351 31.8607C161.352 29.5259 159.334 28.2927 156.357 28.2927C153.866 28.2927 152.041 29.4358 151.329 31.0639C151.229 31.2995 151.049 31.3549 150.969 31.0154C150.807 30.3288 150.427 29.7191 149.89 29.2853C149.354 28.8515 148.692 28.6189 148.012 28.6252H145.781V49.2226H151.042V38.7611C151.042 35.1862 152.461 32.9692 154.912 32.9692C157.003 32.9692 158.122 34.3548 158.122 36.7104V49.2226H163.383V38.7195C163.383 35.1723 164.781 32.9692 167.219 32.9692C169.33 32.9692 170.509 34.3548 170.509 36.7104V49.2226H175.77V35.304C175.77 31.1471 172.88 28.2927 168.684 28.2927" fill="white"/>
<path d="M100.741 23.1662C100.741 22.3264 100.421 21.5211 99.8498 20.9273C99.279 20.3336 98.5049 20 97.6977 20H95.5V45.447C95.5 48.3637 97.2781 49.5415 99.2627 49.5415C100.114 49.5377 100.954 49.344 101.727 48.9734C100.934 47.7471 100.768 46.0151 100.768 44.4563L100.741 23.1662Z" fill="white"/>
<path d="M70.2795 26.4084C70.269 24.9621 69.7107 23.5785 68.7257 22.5577C67.7408 21.537 66.4086 20.9614 65.0183 20.956H60.0435C59.2363 20.956 58.4622 21.2896 57.8914 21.8833C57.3206 22.4771 57 23.2824 57 24.1222V26.6232H64.9051V45.4469C64.9051 48.3636 66.7365 49.5414 68.7211 49.5414C69.5892 49.5371 70.4467 49.3435 71.2385 48.9733C70.446 47.747 70.2795 46.015 70.2795 44.4562V26.4084Z" fill="white"/>
<path d="M78.183 25.3969V20.956H68.6196C68.5908 20.9578 68.5633 20.9689 68.5407 20.9876C68.5182 21.0064 68.5018 21.0319 68.4938 21.0608C68.4858 21.0896 68.4865 21.1203 68.4959 21.1487C68.5054 21.1771 68.523 21.2017 68.5464 21.2193C69.2654 21.6638 69.8785 22.2717 70.3399 22.9976C70.8012 23.7234 71.0987 24.5484 71.2103 25.4108C71.2502 25.7573 71.4144 26.0753 71.67 26.3014C71.9255 26.5274 72.2537 26.6448 72.5888 26.6301H76.9709C77.1286 26.6329 77.2852 26.6031 77.4317 26.5424C77.5782 26.4818 77.7117 26.3915 77.8245 26.2768C77.9372 26.1621 78.0269 26.0253 78.0885 25.8742C78.15 25.7232 78.1821 25.561 78.183 25.3969" fill="white"/>
<path d="M187.366 36.6344C184.748 35.9416 183.809 35.325 183.809 34.4036C183.809 33.1911 184.775 32.4914 186.786 32.4914C188.919 32.4831 191.006 33.1368 192.78 34.3689V29.9141C190.905 28.8112 188.78 28.2514 186.626 28.293C181.771 28.293 178.781 30.9464 178.781 34.5906C178.781 38.2348 181.771 39.8075 184.975 40.7289C187.639 41.5395 188.971 41.9899 188.971 43.2161C188.971 44.4424 187.938 45.2946 185.707 45.2946C183.215 45.3062 180.806 44.3615 178.941 42.6411V47.4908C181.011 48.9051 183.445 49.6301 185.92 49.5692C191.028 49.5692 194.019 47.0266 194.019 43.1261C194.019 38.9276 190.562 37.5074 187.399 36.6621" fill="white"/>
<path d="M83.5125 28.2928C78.1182 28.2928 73.6895 32.5051 73.6895 39.0037C73.6895 45.239 77.6853 49.5414 84.345 49.5414C86.7701 49.5569 89.1509 48.8657 91.2178 47.5461V42.8696C89.3872 44.2605 87.1907 45.0342 84.9244 45.0866C81.6478 45.0866 79.3968 43.6525 78.7175 40.4794H92.4566C92.5407 39.8408 92.5896 39.1978 92.6031 38.5534C92.6031 31.8331 88.4208 28.2859 83.4926 28.2859L83.5125 28.2928ZM78.8974 36.7105C79.3036 34.1817 81.1483 32.3874 83.4526 32.3874C85.637 32.3874 87.2886 33.8838 87.5217 36.7105H78.8974Z" fill="white"/>
<path d="M205.444 28.2928C200.05 28.2928 195.621 32.5051 195.621 39.0037C195.621 45.239 199.617 49.5414 206.277 49.5414C208.702 49.5569 211.083 48.8657 213.149 47.5461V42.8696C211.317 44.2618 209.118 45.0356 206.849 45.0866C203.573 45.0866 201.322 43.6525 200.643 40.4794H214.382C214.466 39.8408 214.515 39.1978 214.528 38.5534C214.528 31.8331 210.346 28.2859 205.418 28.2859L205.444 28.2928ZM200.822 36.7105C201.229 34.1817 203.073 32.3874 205.378 32.3874C207.562 32.3874 209.214 33.8838 209.447 36.7105H200.822Z" fill="white"/>
<path d="M222.701 44.4632V23.1662C222.701 22.3264 222.38 21.5211 221.809 20.9273C221.238 20.3336 220.464 20 219.657 20H217.439V45.447C217.439 48.3637 219.218 49.5415 221.202 49.5415C222.053 49.5377 222.893 49.344 223.666 48.9734C222.874 47.7471 222.707 46.0151 222.707 44.4563" fill="white"/>
</svg>
